G04 #@! TF.FileFunction,Soldermask,Top*
%FSLAX46Y46*%
G04 Gerber Fmt 4.6, Leading zero omitted, Abs format (unit mm)*
G04 Created by KiCad (PCBNEW 4.0.2-stable) date 2017/04/12 1:03:06 PM*
%MOMM*%
G01*
G04 APERTURE LIST*
%ADD10C,0.100000*%
%ADD11C,4.064000*%
%ADD12O,1.727200X2.032000*%
%ADD13O,2.500000X2.500000*%
%ADD14R,0.900000X0.500000*%
%ADD15C,2.999740*%
%ADD16R,0.400000X1.100000*%
%ADD17R,3.800000X2.000000*%
%ADD18R,1.500000X2.000000*%
%ADD19R,0.800000X0.750000*%
%ADD20R,1.000000X1.250000*%
%ADD21R,0.750000X0.800000*%
%ADD22R,1.250000X1.000000*%
%ADD23R,0.900000X0.800000*%
%ADD24R,0.500000X0.900000*%
%ADD25R,1.700000X0.900000*%
%ADD26R,1.300000X1.700000*%
%ADD27R,1.700000X1.300000*%
%ADD28R,1.600000X3.500000*%
%ADD29R,3.500000X1.600000*%
%ADD30R,1.143000X0.508000*%
G04 APERTURE END LIST*
D10*
D11*
X126238000Y-75565000D03*
D12*
X156718000Y-75565000D03*
X159258000Y-75565000D03*
X161798000Y-75565000D03*
X164338000Y-75565000D03*
X166878000Y-75565000D03*
X169418000Y-75565000D03*
X171958000Y-75565000D03*
X174498000Y-75565000D03*
D11*
X177038000Y-118745000D03*
D13*
X119498000Y-68365000D03*
X114498000Y-68365000D03*
X185248000Y-72115000D03*
X185248000Y-67115000D03*
D14*
X138498000Y-93615000D03*
X138498000Y-95115000D03*
X136498000Y-100115000D03*
X136498000Y-101615000D03*
D15*
X183878000Y-103365000D03*
X191498000Y-103365000D03*
X191498000Y-88125000D03*
X191498000Y-83045000D03*
X191498000Y-77965000D03*
X183878000Y-88125000D03*
X183878000Y-83045000D03*
X183878000Y-77965000D03*
D16*
X115585000Y-104791000D03*
X116235000Y-104791000D03*
X116885000Y-104791000D03*
X117535000Y-104791000D03*
X118185000Y-104791000D03*
X118835000Y-104791000D03*
X119485000Y-104791000D03*
X120135000Y-104791000D03*
X120785000Y-104791000D03*
X121435000Y-104791000D03*
X122085000Y-104791000D03*
X122735000Y-104791000D03*
X123385000Y-104791000D03*
X124035000Y-104791000D03*
X124035000Y-99091000D03*
X123385000Y-99091000D03*
X122735000Y-99091000D03*
X122085000Y-99091000D03*
X121435000Y-99091000D03*
X120785000Y-99091000D03*
X120135000Y-99091000D03*
X119485000Y-99091000D03*
X118835000Y-99091000D03*
X118185000Y-99091000D03*
X117535000Y-99091000D03*
X116885000Y-99091000D03*
X116235000Y-99091000D03*
X115585000Y-99091000D03*
D17*
X136198000Y-79215000D03*
D18*
X136198000Y-85515000D03*
X138498000Y-85515000D03*
X133898000Y-85515000D03*
D16*
X139773000Y-104715000D03*
X140423000Y-104715000D03*
X141073000Y-104715000D03*
X141723000Y-104715000D03*
X142373000Y-104715000D03*
X143023000Y-104715000D03*
X143673000Y-104715000D03*
X144323000Y-104715000D03*
X144973000Y-104715000D03*
X145623000Y-104715000D03*
X146273000Y-104715000D03*
X146923000Y-104715000D03*
X147573000Y-104715000D03*
X148223000Y-104715000D03*
X148223000Y-99015000D03*
X147573000Y-99015000D03*
X146923000Y-99015000D03*
X146273000Y-99015000D03*
X145623000Y-99015000D03*
X144973000Y-99015000D03*
X144323000Y-99015000D03*
X143673000Y-99015000D03*
X143023000Y-99015000D03*
X142373000Y-99015000D03*
X141723000Y-99015000D03*
X141073000Y-99015000D03*
X140423000Y-99015000D03*
X139773000Y-99015000D03*
X162773000Y-104715000D03*
X163423000Y-104715000D03*
X164073000Y-104715000D03*
X164723000Y-104715000D03*
X165373000Y-104715000D03*
X166023000Y-104715000D03*
X166673000Y-104715000D03*
X167323000Y-104715000D03*
X167973000Y-104715000D03*
X168623000Y-104715000D03*
X169273000Y-104715000D03*
X169923000Y-104715000D03*
X170573000Y-104715000D03*
X171223000Y-104715000D03*
X171223000Y-99015000D03*
X170573000Y-99015000D03*
X169923000Y-99015000D03*
X169273000Y-99015000D03*
X168623000Y-99015000D03*
X167973000Y-99015000D03*
X167323000Y-99015000D03*
X166673000Y-99015000D03*
X166023000Y-99015000D03*
X165373000Y-99015000D03*
X164723000Y-99015000D03*
X164073000Y-99015000D03*
X163423000Y-99015000D03*
X162773000Y-99015000D03*
D13*
X161498000Y-117365000D03*
X166498000Y-117365000D03*
X171498000Y-117365000D03*
X156498000Y-117365000D03*
D19*
X126680000Y-91781000D03*
X128180000Y-91781000D03*
D20*
X140198000Y-88165000D03*
X142198000Y-88165000D03*
D21*
X178498000Y-122115000D03*
X178498000Y-123615000D03*
D22*
X113714000Y-105005000D03*
X113714000Y-107005000D03*
D19*
X115504000Y-109561000D03*
X117004000Y-109561000D03*
D22*
X126922000Y-109037000D03*
X126922000Y-107037000D03*
X124890000Y-109037000D03*
X124890000Y-107037000D03*
D19*
X150748000Y-91865000D03*
X152248000Y-91865000D03*
D22*
X137998000Y-104865000D03*
X137998000Y-106865000D03*
D19*
X139748000Y-109365000D03*
X141248000Y-109365000D03*
D22*
X150998000Y-108865000D03*
X150998000Y-106865000D03*
D19*
X142748000Y-73365000D03*
X144248000Y-73365000D03*
D22*
X148998000Y-108865000D03*
X148998000Y-106865000D03*
D19*
X147748000Y-73365000D03*
X149248000Y-73365000D03*
X173748000Y-91865000D03*
X175248000Y-91865000D03*
D22*
X160998000Y-104865000D03*
X160998000Y-106865000D03*
D19*
X162748000Y-109365000D03*
X164248000Y-109365000D03*
D22*
X173998000Y-108865000D03*
X173998000Y-106865000D03*
X171998000Y-108865000D03*
X171998000Y-106865000D03*
D23*
X177998000Y-89415000D03*
X177998000Y-91315000D03*
X179998000Y-90365000D03*
D14*
X121842000Y-93571000D03*
X121842000Y-95071000D03*
X123366000Y-93571000D03*
X123366000Y-95071000D03*
X113714000Y-100175000D03*
X113714000Y-101675000D03*
X112698000Y-93571000D03*
X112698000Y-95071000D03*
X114222000Y-93571000D03*
X114222000Y-95071000D03*
X112190000Y-100175000D03*
X112190000Y-101675000D03*
X115746000Y-93571000D03*
X115746000Y-95071000D03*
X126414000Y-93571000D03*
X126414000Y-95071000D03*
X127938000Y-95071000D03*
X127938000Y-93571000D03*
X130986000Y-103707000D03*
X130986000Y-102207000D03*
X145998000Y-93615000D03*
X145998000Y-95115000D03*
X147498000Y-93615000D03*
X147498000Y-95115000D03*
X148998000Y-93615000D03*
X148998000Y-95115000D03*
X141498000Y-93615000D03*
X141498000Y-95115000D03*
X139998000Y-93615000D03*
X139998000Y-95115000D03*
X150498000Y-93615000D03*
X150498000Y-95115000D03*
X156498000Y-103615000D03*
X156498000Y-102115000D03*
D24*
X156448000Y-105065000D03*
X157948000Y-105065000D03*
D14*
X168998000Y-93615000D03*
X168998000Y-95115000D03*
X160998000Y-100115000D03*
X160998000Y-101615000D03*
X161498000Y-93615000D03*
X161498000Y-95115000D03*
X159498000Y-100115000D03*
X159498000Y-101615000D03*
X162998000Y-93615000D03*
X162998000Y-95115000D03*
X173498000Y-93615000D03*
X173498000Y-95115000D03*
X176248000Y-87865000D03*
X176248000Y-89365000D03*
X174998000Y-95115000D03*
X174998000Y-93615000D03*
X179998000Y-86115000D03*
X179998000Y-87615000D03*
X178248000Y-86115000D03*
X178248000Y-87615000D03*
X179498000Y-105115000D03*
X179498000Y-106615000D03*
X124890000Y-93571000D03*
X124890000Y-95071000D03*
X117270000Y-93571000D03*
X117270000Y-95071000D03*
X132510000Y-103707000D03*
X132510000Y-102207000D03*
D24*
X132448000Y-104965000D03*
X133948000Y-104965000D03*
D25*
X128954000Y-102523000D03*
X128954000Y-105423000D03*
X128954000Y-100851000D03*
X128954000Y-97951000D03*
D14*
X151998000Y-95115000D03*
X151998000Y-93615000D03*
X154998000Y-103615000D03*
X154998000Y-102115000D03*
D25*
X150498000Y-100815000D03*
X150498000Y-97915000D03*
X152998000Y-100815000D03*
X152998000Y-97915000D03*
D14*
X170498000Y-93615000D03*
X170498000Y-95115000D03*
X159998000Y-93615000D03*
X159998000Y-95115000D03*
X177998000Y-103615000D03*
X177998000Y-102115000D03*
X179498000Y-103615000D03*
X179498000Y-102115000D03*
D25*
X175998000Y-100815000D03*
X175998000Y-97915000D03*
D13*
X185248000Y-113865000D03*
X185248000Y-118865000D03*
X185248000Y-123865000D03*
X185248000Y-108865000D03*
X119498000Y-117365000D03*
X124498000Y-117365000D03*
X129498000Y-117365000D03*
X114498000Y-117365000D03*
X140998000Y-68365000D03*
X145998000Y-68365000D03*
X150998000Y-68365000D03*
X135998000Y-68365000D03*
X140498000Y-117365000D03*
X145498000Y-117365000D03*
X150498000Y-117365000D03*
X135498000Y-117365000D03*
D25*
X126414000Y-102523000D03*
X126414000Y-105423000D03*
X126414000Y-100851000D03*
X126414000Y-97951000D03*
D14*
X137998000Y-100115000D03*
X137998000Y-101615000D03*
X136998000Y-93615000D03*
X136998000Y-95115000D03*
D25*
X150498000Y-102415000D03*
X150498000Y-105315000D03*
X152998000Y-102415000D03*
X152998000Y-105315000D03*
D14*
X171998000Y-93615000D03*
X171998000Y-95115000D03*
X164498000Y-93615000D03*
X164498000Y-95115000D03*
D25*
X173498000Y-102415000D03*
X173498000Y-105315000D03*
X175998000Y-102415000D03*
X175998000Y-105315000D03*
X173498000Y-100815000D03*
X173498000Y-97915000D03*
D12*
X138938000Y-123825000D03*
X141478000Y-123825000D03*
X144018000Y-123825000D03*
X146558000Y-123825000D03*
X149098000Y-123825000D03*
X151638000Y-123825000D03*
X154178000Y-123825000D03*
X156718000Y-123825000D03*
X161798000Y-123825000D03*
X164338000Y-123825000D03*
X166878000Y-123825000D03*
X169418000Y-123825000D03*
X171958000Y-123825000D03*
X174498000Y-123825000D03*
X129794000Y-75565000D03*
X132334000Y-75565000D03*
X134874000Y-75565000D03*
X137414000Y-75565000D03*
X139954000Y-75565000D03*
X142494000Y-75565000D03*
X145034000Y-75565000D03*
X147574000Y-75565000D03*
X150114000Y-75565000D03*
X152654000Y-75565000D03*
D11*
X124968000Y-123825000D03*
D13*
X125998000Y-68365000D03*
X130998000Y-68365000D03*
D26*
X137948000Y-88165000D03*
X134448000Y-88165000D03*
D27*
X192898000Y-108015000D03*
X192898000Y-111515000D03*
D28*
X126348000Y-85715000D03*
X126348000Y-80315000D03*
X143298000Y-79265000D03*
X143298000Y-84665000D03*
D29*
X129998000Y-109765000D03*
X135398000Y-109765000D03*
X153798000Y-109665000D03*
X159198000Y-109665000D03*
D28*
X177698000Y-108865000D03*
X177698000Y-114265000D03*
D22*
X113148000Y-85815000D03*
X113148000Y-83815000D03*
D26*
X116698000Y-88115000D03*
X120198000Y-88115000D03*
D30*
X115273000Y-85820000D03*
X115273000Y-84550000D03*
X115273000Y-83280000D03*
X115273000Y-82010000D03*
X121623000Y-82010000D03*
X121623000Y-83280000D03*
X121623000Y-84550000D03*
X121623000Y-85820000D03*
M02*
