M48
;DRILL file {KiCad 4.0.2-stable} date 2017/04/12 1:03:03 PM
;FORMAT={-:-/ absolute / metric / decimal}
FMAT,2
METRIC,TZ
T1C0.400
T2C0.800
T3C1.016
T4C1.199
T5C1.200
T6C3.048
%
G90
G05
M71
T1
X109.998Y-112.865
X109.998Y-113.865
X110.298Y-66.265
X110.298Y-67.265
X110.998Y-112.865
X110.998Y-113.865
X111.098Y-92.265
X111.298Y-66.265
X111.298Y-67.265
X112.198Y-96.765
X112.198Y-97.765
X113.198Y-96.765
X113.198Y-97.765
X113.298Y-120.065
X113.398Y-76.765
X113.398Y-77.765
X114.398Y-76.765
X114.398Y-77.765
X115.498Y-97.965
X116.998Y-110.865
X117.498Y-92.865
X120.498Y-95.115
X121.198Y-76.165
X121.198Y-77.165
X121.498Y-92.865
X122.198Y-76.165
X122.198Y-77.165
X122.498Y-103.465
X122.498Y-106.765
X124.998Y-110.865
X128.698Y-96.465
X129.898Y-96.465
X130.798Y-86.065
X130.798Y-87.065
X130.798Y-122.465
X130.798Y-123.465
X130.798Y-124.465
X131.598Y-114.765
X131.598Y-115.765
X131.798Y-86.065
X131.798Y-87.065
X131.798Y-122.465
X131.798Y-123.465
X131.798Y-124.465
X132.598Y-114.765
X132.598Y-115.765
X132.798Y-93.765
X132.798Y-94.765
X132.798Y-95.765
X132.798Y-122.465
X132.798Y-123.465
X132.798Y-124.465
X133.198Y-88.165
X133.798Y-93.765
X133.798Y-94.765
X133.798Y-95.765
X133.998Y-82.365
X134.798Y-93.765
X134.798Y-94.765
X134.798Y-95.765
X138.298Y-82.365
X139.698Y-97.965
X139.998Y-85.665
X141.498Y-92.865
X141.498Y-110.365
X143.598Y-87.365
X144.598Y-87.865
X144.698Y-94.765
X145.998Y-92.865
X146.498Y-103.265
X146.748Y-106.365
X148.998Y-110.365
X152.798Y-114.965
X152.798Y-115.965
X153.798Y-114.965
X153.798Y-115.965
X154.598Y-90.165
X156.098Y-93.665
X156.098Y-94.665
X156.098Y-95.665
X157.098Y-93.665
X157.098Y-94.665
X157.098Y-95.665
X158.098Y-93.665
X158.098Y-94.665
X158.098Y-95.665
X158.498Y-87.965
X158.498Y-88.965
X159.498Y-87.965
X159.498Y-88.965
X162.698Y-98.165
X162.998Y-72.365
X164.498Y-92.865
X164.498Y-110.365
X166.198Y-67.965
X166.198Y-68.965
X167.098Y-80.765
X167.098Y-81.765
X167.198Y-67.965
X167.198Y-68.965
X167.748Y-92.115
X168.098Y-80.765
X168.098Y-81.765
X168.998Y-92.865
X169.598Y-106.065
X169.798Y-103.465
X170.098Y-88.065
X170.098Y-89.065
X171.098Y-88.065
X171.098Y-89.065
X171.998Y-110.365
X175.798Y-78.865
X177.398Y-87.065
X177.698Y-121.965
X179.898Y-83.965
X180.098Y-112.965
X180.098Y-113.965
X180.098Y-114.965
X180.098Y-115.965
X181.098Y-112.965
X181.098Y-113.965
X181.098Y-114.965
X181.098Y-115.965
X182.098Y-112.965
X182.098Y-113.965
X182.098Y-114.965
X182.098Y-115.965
X183.098Y-112.965
X183.098Y-113.965
X183.098Y-114.965
X183.098Y-115.965
T2
X113.798Y-112.365
X128.998Y-113.115
X152.998Y-113.065
X175.198Y-113.115
T3
X129.794Y-75.565
X132.334Y-75.565
X134.874Y-75.565
X137.414Y-75.565
X138.938Y-123.825
X139.954Y-75.565
X141.478Y-123.825
X142.494Y-75.565
X144.018Y-123.825
X145.034Y-75.565
X146.558Y-123.825
X147.574Y-75.565
X149.098Y-123.825
X150.114Y-75.565
X151.638Y-123.825
X152.654Y-75.565
X154.178Y-123.825
X156.718Y-75.565
X156.718Y-123.825
X159.258Y-75.565
X161.798Y-75.565
X161.798Y-123.825
X164.338Y-75.565
X164.338Y-123.825
X166.878Y-75.565
X166.878Y-123.825
X169.418Y-75.565
X169.418Y-123.825
X171.958Y-75.565
X171.958Y-123.825
X174.498Y-75.565
X174.498Y-123.825
T4
X183.878Y-77.965
X183.878Y-83.045
X183.878Y-88.125
X183.878Y-103.365
X191.498Y-77.965
X191.498Y-83.045
X191.498Y-88.125
X191.498Y-103.365
T5
X114.498Y-68.365
X114.498Y-117.365
X119.498Y-68.365
X119.498Y-117.365
X124.498Y-117.365
X125.998Y-68.365
X129.498Y-117.365
X130.998Y-68.365
X135.498Y-117.365
X135.998Y-68.365
X140.498Y-117.365
X140.998Y-68.365
X145.498Y-117.365
X145.998Y-68.365
X150.498Y-117.365
X150.998Y-68.365
X156.498Y-117.365
X161.498Y-117.365
X166.498Y-117.365
X171.498Y-117.365
X185.248Y-67.115
X185.248Y-72.115
X185.248Y-108.865
X185.248Y-113.865
X185.248Y-118.865
X185.248Y-123.865
T6
X124.968Y-123.825
X126.238Y-75.565
X177.038Y-118.745
T0
M30
