G04 #@! TF.FileFunction,Legend,Top*
%FSLAX46Y46*%
G04 Gerber Fmt 4.6, Leading zero omitted, Abs format (unit mm)*
G04 Created by KiCad (PCBNEW 4.0.2-stable) date 2017/04/12 1:03:06 PM*
%MOMM*%
G01*
G04 APERTURE LIST*
%ADD10C,0.100000*%
%ADD11C,0.250000*%
%ADD12C,0.300000*%
%ADD13C,0.150000*%
%ADD14C,0.120000*%
G04 APERTURE END LIST*
D10*
D11*
X112683714Y-73436429D02*
X113445619Y-73436429D01*
X113874190Y-72912619D02*
X113921809Y-72865000D01*
X114017047Y-72817381D01*
X114255143Y-72817381D01*
X114350381Y-72865000D01*
X114398000Y-72912619D01*
X114445619Y-73007857D01*
X114445619Y-73103095D01*
X114398000Y-73245952D01*
X113826571Y-73817381D01*
X114445619Y-73817381D01*
X115302762Y-73150714D02*
X115302762Y-73817381D01*
X115064666Y-72769762D02*
X114826571Y-73484048D01*
X115445619Y-73484048D01*
X115731333Y-73150714D02*
X115969428Y-73817381D01*
X116207524Y-73150714D01*
X117583714Y-73536429D02*
X118345619Y-73536429D01*
X117964667Y-73917381D02*
X117964667Y-73155476D01*
X118774190Y-73012619D02*
X118821809Y-72965000D01*
X118917047Y-72917381D01*
X119155143Y-72917381D01*
X119250381Y-72965000D01*
X119298000Y-73012619D01*
X119345619Y-73107857D01*
X119345619Y-73203095D01*
X119298000Y-73345952D01*
X118726571Y-73917381D01*
X119345619Y-73917381D01*
X120202762Y-73250714D02*
X120202762Y-73917381D01*
X119964666Y-72869762D02*
X119726571Y-73584048D01*
X120345619Y-73584048D01*
X120631333Y-73250714D02*
X120869428Y-73917381D01*
X121107524Y-73250714D01*
X146050381Y-72517381D02*
X146717048Y-73517381D01*
X146717048Y-72517381D02*
X146050381Y-73517381D01*
X148336096Y-73517381D02*
X147859905Y-73517381D01*
X147859905Y-72517381D01*
X148669429Y-73517381D02*
X148669429Y-72850714D01*
X148669429Y-72517381D02*
X148621810Y-72565000D01*
X148669429Y-72612619D01*
X148717048Y-72565000D01*
X148669429Y-72517381D01*
X148669429Y-72612619D01*
X149145619Y-73517381D02*
X149145619Y-72850714D01*
X149145619Y-72945952D02*
X149193238Y-72898333D01*
X149288476Y-72850714D01*
X149431334Y-72850714D01*
X149526572Y-72898333D01*
X149574191Y-72993571D01*
X149574191Y-73517381D01*
X149574191Y-72993571D02*
X149621810Y-72898333D01*
X149717048Y-72850714D01*
X149859905Y-72850714D01*
X149955143Y-72898333D01*
X150002762Y-72993571D01*
X150002762Y-73517381D01*
X150478952Y-73517381D02*
X150478952Y-72850714D01*
X150478952Y-72517381D02*
X150431333Y-72565000D01*
X150478952Y-72612619D01*
X150526571Y-72565000D01*
X150478952Y-72517381D01*
X150478952Y-72612619D01*
X150812285Y-72850714D02*
X151193237Y-72850714D01*
X150955142Y-72517381D02*
X150955142Y-73374524D01*
X151002761Y-73469762D01*
X151097999Y-73517381D01*
X151193237Y-73517381D01*
X136483714Y-73141190D02*
X136483714Y-73617381D01*
X136150381Y-72617381D02*
X136483714Y-73141190D01*
X136817048Y-72617381D01*
X138388477Y-73617381D02*
X137912286Y-73617381D01*
X137912286Y-72617381D01*
X138721810Y-73617381D02*
X138721810Y-72950714D01*
X138721810Y-72617381D02*
X138674191Y-72665000D01*
X138721810Y-72712619D01*
X138769429Y-72665000D01*
X138721810Y-72617381D01*
X138721810Y-72712619D01*
X139198000Y-73617381D02*
X139198000Y-72950714D01*
X139198000Y-73045952D02*
X139245619Y-72998333D01*
X139340857Y-72950714D01*
X139483715Y-72950714D01*
X139578953Y-72998333D01*
X139626572Y-73093571D01*
X139626572Y-73617381D01*
X139626572Y-73093571D02*
X139674191Y-72998333D01*
X139769429Y-72950714D01*
X139912286Y-72950714D01*
X140007524Y-72998333D01*
X140055143Y-73093571D01*
X140055143Y-73617381D01*
X140531333Y-73617381D02*
X140531333Y-72950714D01*
X140531333Y-72617381D02*
X140483714Y-72665000D01*
X140531333Y-72712619D01*
X140578952Y-72665000D01*
X140531333Y-72617381D01*
X140531333Y-72712619D01*
X140864666Y-72950714D02*
X141245618Y-72950714D01*
X141007523Y-72617381D02*
X141007523Y-73474524D01*
X141055142Y-73569762D01*
X141150380Y-73617381D01*
X141245618Y-73617381D01*
X125845619Y-72417381D02*
X126512286Y-72417381D01*
X125845619Y-73417381D01*
X126512286Y-73417381D01*
X128131334Y-73417381D02*
X127655143Y-73417381D01*
X127655143Y-72417381D01*
X128464667Y-73417381D02*
X128464667Y-72750714D01*
X128464667Y-72417381D02*
X128417048Y-72465000D01*
X128464667Y-72512619D01*
X128512286Y-72465000D01*
X128464667Y-72417381D01*
X128464667Y-72512619D01*
X128940857Y-73417381D02*
X128940857Y-72750714D01*
X128940857Y-72845952D02*
X128988476Y-72798333D01*
X129083714Y-72750714D01*
X129226572Y-72750714D01*
X129321810Y-72798333D01*
X129369429Y-72893571D01*
X129369429Y-73417381D01*
X129369429Y-72893571D02*
X129417048Y-72798333D01*
X129512286Y-72750714D01*
X129655143Y-72750714D01*
X129750381Y-72798333D01*
X129798000Y-72893571D01*
X129798000Y-73417381D01*
X130274190Y-73417381D02*
X130274190Y-72750714D01*
X130274190Y-72417381D02*
X130226571Y-72465000D01*
X130274190Y-72512619D01*
X130321809Y-72465000D01*
X130274190Y-72417381D01*
X130274190Y-72512619D01*
X130607523Y-72750714D02*
X130988475Y-72750714D01*
X130750380Y-72417381D02*
X130750380Y-73274524D01*
X130797999Y-73369762D01*
X130893237Y-73417381D01*
X130988475Y-73417381D01*
X131274190Y-73369762D02*
X131369428Y-73417381D01*
X131559904Y-73417381D01*
X131655143Y-73369762D01*
X131702762Y-73274524D01*
X131702762Y-73226905D01*
X131655143Y-73131667D01*
X131559904Y-73084048D01*
X131417047Y-73084048D01*
X131321809Y-73036429D01*
X131274190Y-72941190D01*
X131274190Y-72893571D01*
X131321809Y-72798333D01*
X131417047Y-72750714D01*
X131559904Y-72750714D01*
X131655143Y-72798333D01*
X189326571Y-72269762D02*
X189469428Y-72317381D01*
X189707524Y-72317381D01*
X189802762Y-72269762D01*
X189850381Y-72222143D01*
X189898000Y-72126905D01*
X189898000Y-72031667D01*
X189850381Y-71936429D01*
X189802762Y-71888810D01*
X189707524Y-71841190D01*
X189517047Y-71793571D01*
X189421809Y-71745952D01*
X189374190Y-71698333D01*
X189326571Y-71603095D01*
X189326571Y-71507857D01*
X189374190Y-71412619D01*
X189421809Y-71365000D01*
X189517047Y-71317381D01*
X189755143Y-71317381D01*
X189898000Y-71365000D01*
X190326571Y-71650714D02*
X190326571Y-72650714D01*
X190326571Y-71698333D02*
X190421809Y-71650714D01*
X190612286Y-71650714D01*
X190707524Y-71698333D01*
X190755143Y-71745952D01*
X190802762Y-71841190D01*
X190802762Y-72126905D01*
X190755143Y-72222143D01*
X190707524Y-72269762D01*
X190612286Y-72317381D01*
X190421809Y-72317381D01*
X190326571Y-72269762D01*
X191231333Y-72317381D02*
X191231333Y-71650714D01*
X191231333Y-71317381D02*
X191183714Y-71365000D01*
X191231333Y-71412619D01*
X191278952Y-71365000D01*
X191231333Y-71317381D01*
X191231333Y-71412619D01*
X191707523Y-71650714D02*
X191707523Y-72317381D01*
X191707523Y-71745952D02*
X191755142Y-71698333D01*
X191850380Y-71650714D01*
X191993238Y-71650714D01*
X192088476Y-71698333D01*
X192136095Y-71793571D01*
X192136095Y-72317381D01*
X193040857Y-72317381D02*
X193040857Y-71317381D01*
X193040857Y-72269762D02*
X192945619Y-72317381D01*
X192755142Y-72317381D01*
X192659904Y-72269762D01*
X192612285Y-72222143D01*
X192564666Y-72126905D01*
X192564666Y-71841190D01*
X192612285Y-71745952D01*
X192659904Y-71698333D01*
X192755142Y-71650714D01*
X192945619Y-71650714D01*
X193040857Y-71698333D01*
X193659904Y-72317381D02*
X193564666Y-72269762D01*
X193517047Y-72174524D01*
X193517047Y-71317381D01*
X194421810Y-72269762D02*
X194326572Y-72317381D01*
X194136095Y-72317381D01*
X194040857Y-72269762D01*
X193993238Y-72174524D01*
X193993238Y-71793571D01*
X194040857Y-71698333D01*
X194136095Y-71650714D01*
X194326572Y-71650714D01*
X194421810Y-71698333D01*
X194469429Y-71793571D01*
X194469429Y-71888810D01*
X193993238Y-71984048D01*
X189226571Y-66969762D02*
X189369428Y-67017381D01*
X189607524Y-67017381D01*
X189702762Y-66969762D01*
X189750381Y-66922143D01*
X189798000Y-66826905D01*
X189798000Y-66731667D01*
X189750381Y-66636429D01*
X189702762Y-66588810D01*
X189607524Y-66541190D01*
X189417047Y-66493571D01*
X189321809Y-66445952D01*
X189274190Y-66398333D01*
X189226571Y-66303095D01*
X189226571Y-66207857D01*
X189274190Y-66112619D01*
X189321809Y-66065000D01*
X189417047Y-66017381D01*
X189655143Y-66017381D01*
X189798000Y-66065000D01*
X190226571Y-66350714D02*
X190226571Y-67350714D01*
X190226571Y-66398333D02*
X190321809Y-66350714D01*
X190512286Y-66350714D01*
X190607524Y-66398333D01*
X190655143Y-66445952D01*
X190702762Y-66541190D01*
X190702762Y-66826905D01*
X190655143Y-66922143D01*
X190607524Y-66969762D01*
X190512286Y-67017381D01*
X190321809Y-67017381D01*
X190226571Y-66969762D01*
X191131333Y-67017381D02*
X191131333Y-66350714D01*
X191131333Y-66017381D02*
X191083714Y-66065000D01*
X191131333Y-66112619D01*
X191178952Y-66065000D01*
X191131333Y-66017381D01*
X191131333Y-66112619D01*
X191607523Y-66350714D02*
X191607523Y-67017381D01*
X191607523Y-66445952D02*
X191655142Y-66398333D01*
X191750380Y-66350714D01*
X191893238Y-66350714D01*
X191988476Y-66398333D01*
X192036095Y-66493571D01*
X192036095Y-67017381D01*
X192940857Y-67017381D02*
X192940857Y-66017381D01*
X192940857Y-66969762D02*
X192845619Y-67017381D01*
X192655142Y-67017381D01*
X192559904Y-66969762D01*
X192512285Y-66922143D01*
X192464666Y-66826905D01*
X192464666Y-66541190D01*
X192512285Y-66445952D01*
X192559904Y-66398333D01*
X192655142Y-66350714D01*
X192845619Y-66350714D01*
X192940857Y-66398333D01*
X193559904Y-67017381D02*
X193464666Y-66969762D01*
X193417047Y-66874524D01*
X193417047Y-66017381D01*
X194321810Y-66969762D02*
X194226572Y-67017381D01*
X194036095Y-67017381D01*
X193940857Y-66969762D01*
X193893238Y-66874524D01*
X193893238Y-66493571D01*
X193940857Y-66398333D01*
X194036095Y-66350714D01*
X194226572Y-66350714D01*
X194321810Y-66398333D01*
X194369429Y-66493571D01*
X194369429Y-66588810D01*
X193893238Y-66684048D01*
X190488477Y-109222143D02*
X190440858Y-109269762D01*
X190298001Y-109317381D01*
X190202763Y-109317381D01*
X190059905Y-109269762D01*
X189964667Y-109174524D01*
X189917048Y-109079286D01*
X189869429Y-108888810D01*
X189869429Y-108745952D01*
X189917048Y-108555476D01*
X189964667Y-108460238D01*
X190059905Y-108365000D01*
X190202763Y-108317381D01*
X190298001Y-108317381D01*
X190440858Y-108365000D01*
X190488477Y-108412619D01*
X191059905Y-109317381D02*
X190964667Y-109269762D01*
X190917048Y-109222143D01*
X190869429Y-109126905D01*
X190869429Y-108841190D01*
X190917048Y-108745952D01*
X190964667Y-108698333D01*
X191059905Y-108650714D01*
X191202763Y-108650714D01*
X191298001Y-108698333D01*
X191345620Y-108745952D01*
X191393239Y-108841190D01*
X191393239Y-109126905D01*
X191345620Y-109222143D01*
X191298001Y-109269762D01*
X191202763Y-109317381D01*
X191059905Y-109317381D01*
X191821810Y-109317381D02*
X191821810Y-108650714D01*
X191821810Y-108745952D02*
X191869429Y-108698333D01*
X191964667Y-108650714D01*
X192107525Y-108650714D01*
X192202763Y-108698333D01*
X192250382Y-108793571D01*
X192250382Y-109317381D01*
X192250382Y-108793571D02*
X192298001Y-108698333D01*
X192393239Y-108650714D01*
X192536096Y-108650714D01*
X192631334Y-108698333D01*
X192678953Y-108793571D01*
X192678953Y-109317381D01*
X190788477Y-119122143D02*
X190740858Y-119169762D01*
X190598001Y-119217381D01*
X190502763Y-119217381D01*
X190359905Y-119169762D01*
X190264667Y-119074524D01*
X190217048Y-118979286D01*
X190169429Y-118788810D01*
X190169429Y-118645952D01*
X190217048Y-118455476D01*
X190264667Y-118360238D01*
X190359905Y-118265000D01*
X190502763Y-118217381D01*
X190598001Y-118217381D01*
X190740858Y-118265000D01*
X190788477Y-118312619D01*
X191359905Y-119217381D02*
X191264667Y-119169762D01*
X191217048Y-119122143D01*
X191169429Y-119026905D01*
X191169429Y-118741190D01*
X191217048Y-118645952D01*
X191264667Y-118598333D01*
X191359905Y-118550714D01*
X191502763Y-118550714D01*
X191598001Y-118598333D01*
X191645620Y-118645952D01*
X191693239Y-118741190D01*
X191693239Y-119026905D01*
X191645620Y-119122143D01*
X191598001Y-119169762D01*
X191502763Y-119217381D01*
X191359905Y-119217381D01*
X192121810Y-119217381D02*
X192121810Y-118550714D01*
X192121810Y-118645952D02*
X192169429Y-118598333D01*
X192264667Y-118550714D01*
X192407525Y-118550714D01*
X192502763Y-118598333D01*
X192550382Y-118693571D01*
X192550382Y-119217381D01*
X192550382Y-118693571D02*
X192598001Y-118598333D01*
X192693239Y-118550714D01*
X192836096Y-118550714D01*
X192931334Y-118598333D01*
X192978953Y-118693571D01*
X192978953Y-119217381D01*
X189755142Y-113144762D02*
X189897999Y-113192381D01*
X190136095Y-113192381D01*
X190231333Y-113144762D01*
X190278952Y-113097143D01*
X190326571Y-113001905D01*
X190326571Y-112906667D01*
X190278952Y-112811429D01*
X190231333Y-112763810D01*
X190136095Y-112716190D01*
X189945618Y-112668571D01*
X189850380Y-112620952D01*
X189802761Y-112573333D01*
X189755142Y-112478095D01*
X189755142Y-112382857D01*
X189802761Y-112287619D01*
X189850380Y-112240000D01*
X189945618Y-112192381D01*
X190183714Y-112192381D01*
X190326571Y-112240000D01*
X190612285Y-112525714D02*
X190993237Y-112525714D01*
X190755142Y-112192381D02*
X190755142Y-113049524D01*
X190802761Y-113144762D01*
X190897999Y-113192381D01*
X190993237Y-113192381D01*
X191755143Y-113192381D02*
X191755143Y-112668571D01*
X191707524Y-112573333D01*
X191612286Y-112525714D01*
X191421809Y-112525714D01*
X191326571Y-112573333D01*
X191755143Y-113144762D02*
X191659905Y-113192381D01*
X191421809Y-113192381D01*
X191326571Y-113144762D01*
X191278952Y-113049524D01*
X191278952Y-112954286D01*
X191326571Y-112859048D01*
X191421809Y-112811429D01*
X191659905Y-112811429D01*
X191755143Y-112763810D01*
X192231333Y-113192381D02*
X192231333Y-112525714D01*
X192231333Y-112716190D02*
X192278952Y-112620952D01*
X192326571Y-112573333D01*
X192421809Y-112525714D01*
X192517048Y-112525714D01*
X192707524Y-112525714D02*
X193088476Y-112525714D01*
X192850381Y-112192381D02*
X192850381Y-113049524D01*
X192898000Y-113144762D01*
X192993238Y-113192381D01*
X193088476Y-113192381D01*
X194136096Y-112144762D02*
X193278953Y-113430476D01*
X189826572Y-114842381D02*
X189493238Y-114366190D01*
X189255143Y-114842381D02*
X189255143Y-113842381D01*
X189636096Y-113842381D01*
X189731334Y-113890000D01*
X189778953Y-113937619D01*
X189826572Y-114032857D01*
X189826572Y-114175714D01*
X189778953Y-114270952D01*
X189731334Y-114318571D01*
X189636096Y-114366190D01*
X189255143Y-114366190D01*
X190636096Y-114794762D02*
X190540858Y-114842381D01*
X190350381Y-114842381D01*
X190255143Y-114794762D01*
X190207524Y-114699524D01*
X190207524Y-114318571D01*
X190255143Y-114223333D01*
X190350381Y-114175714D01*
X190540858Y-114175714D01*
X190636096Y-114223333D01*
X190683715Y-114318571D01*
X190683715Y-114413810D01*
X190207524Y-114509048D01*
X191064667Y-114794762D02*
X191159905Y-114842381D01*
X191350381Y-114842381D01*
X191445620Y-114794762D01*
X191493239Y-114699524D01*
X191493239Y-114651905D01*
X191445620Y-114556667D01*
X191350381Y-114509048D01*
X191207524Y-114509048D01*
X191112286Y-114461429D01*
X191064667Y-114366190D01*
X191064667Y-114318571D01*
X191112286Y-114223333D01*
X191207524Y-114175714D01*
X191350381Y-114175714D01*
X191445620Y-114223333D01*
X192350382Y-114175714D02*
X192350382Y-114842381D01*
X191921810Y-114175714D02*
X191921810Y-114699524D01*
X191969429Y-114794762D01*
X192064667Y-114842381D01*
X192207525Y-114842381D01*
X192302763Y-114794762D01*
X192350382Y-114747143D01*
X192826572Y-114842381D02*
X192826572Y-114175714D01*
X192826572Y-114270952D02*
X192874191Y-114223333D01*
X192969429Y-114175714D01*
X193112287Y-114175714D01*
X193207525Y-114223333D01*
X193255144Y-114318571D01*
X193255144Y-114842381D01*
X193255144Y-114318571D02*
X193302763Y-114223333D01*
X193398001Y-114175714D01*
X193540858Y-114175714D01*
X193636096Y-114223333D01*
X193683715Y-114318571D01*
X193683715Y-114842381D01*
X194540858Y-114794762D02*
X194445620Y-114842381D01*
X194255143Y-114842381D01*
X194159905Y-114794762D01*
X194112286Y-114699524D01*
X194112286Y-114318571D01*
X194159905Y-114223333D01*
X194255143Y-114175714D01*
X194445620Y-114175714D01*
X194540858Y-114223333D01*
X194588477Y-114318571D01*
X194588477Y-114413810D01*
X194112286Y-114509048D01*
X190259905Y-124117381D02*
X189926571Y-123641190D01*
X189688476Y-124117381D02*
X189688476Y-123117381D01*
X190069429Y-123117381D01*
X190164667Y-123165000D01*
X190212286Y-123212619D01*
X190259905Y-123307857D01*
X190259905Y-123450714D01*
X190212286Y-123545952D01*
X190164667Y-123593571D01*
X190069429Y-123641190D01*
X189688476Y-123641190D01*
X191069429Y-124069762D02*
X190974191Y-124117381D01*
X190783714Y-124117381D01*
X190688476Y-124069762D01*
X190640857Y-123974524D01*
X190640857Y-123593571D01*
X190688476Y-123498333D01*
X190783714Y-123450714D01*
X190974191Y-123450714D01*
X191069429Y-123498333D01*
X191117048Y-123593571D01*
X191117048Y-123688810D01*
X190640857Y-123784048D01*
X191498000Y-124069762D02*
X191593238Y-124117381D01*
X191783714Y-124117381D01*
X191878953Y-124069762D01*
X191926572Y-123974524D01*
X191926572Y-123926905D01*
X191878953Y-123831667D01*
X191783714Y-123784048D01*
X191640857Y-123784048D01*
X191545619Y-123736429D01*
X191498000Y-123641190D01*
X191498000Y-123593571D01*
X191545619Y-123498333D01*
X191640857Y-123450714D01*
X191783714Y-123450714D01*
X191878953Y-123498333D01*
X192736096Y-124069762D02*
X192640858Y-124117381D01*
X192450381Y-124117381D01*
X192355143Y-124069762D01*
X192307524Y-123974524D01*
X192307524Y-123593571D01*
X192355143Y-123498333D01*
X192450381Y-123450714D01*
X192640858Y-123450714D01*
X192736096Y-123498333D01*
X192783715Y-123593571D01*
X192783715Y-123688810D01*
X192307524Y-123784048D01*
X193069429Y-123450714D02*
X193450381Y-123450714D01*
X193212286Y-123117381D02*
X193212286Y-123974524D01*
X193259905Y-124069762D01*
X193355143Y-124117381D01*
X193450381Y-124117381D01*
D12*
X159819429Y-120843571D02*
X160819429Y-122343571D01*
X160819429Y-120843571D02*
X159819429Y-122343571D01*
X162533714Y-122343571D02*
X162533714Y-120843571D01*
X163033714Y-121915000D01*
X163533714Y-120843571D01*
X163533714Y-122343571D01*
X164462286Y-122343571D02*
X164319428Y-122272143D01*
X164248000Y-122200714D01*
X164176571Y-122057857D01*
X164176571Y-121629286D01*
X164248000Y-121486429D01*
X164319428Y-121415000D01*
X164462286Y-121343571D01*
X164676571Y-121343571D01*
X164819428Y-121415000D01*
X164890857Y-121486429D01*
X164962286Y-121629286D01*
X164962286Y-122057857D01*
X164890857Y-122200714D01*
X164819428Y-122272143D01*
X164676571Y-122343571D01*
X164462286Y-122343571D01*
X165390857Y-121343571D02*
X165962286Y-121343571D01*
X165605143Y-120843571D02*
X165605143Y-122129286D01*
X165676571Y-122272143D01*
X165819429Y-122343571D01*
X165962286Y-122343571D01*
X166676572Y-122343571D02*
X166533714Y-122272143D01*
X166462286Y-122200714D01*
X166390857Y-122057857D01*
X166390857Y-121629286D01*
X166462286Y-121486429D01*
X166533714Y-121415000D01*
X166676572Y-121343571D01*
X166890857Y-121343571D01*
X167033714Y-121415000D01*
X167105143Y-121486429D01*
X167176572Y-121629286D01*
X167176572Y-122057857D01*
X167105143Y-122200714D01*
X167033714Y-122272143D01*
X166890857Y-122343571D01*
X166676572Y-122343571D01*
X167819429Y-122343571D02*
X167819429Y-121343571D01*
X167819429Y-121629286D02*
X167890857Y-121486429D01*
X167962286Y-121415000D01*
X168105143Y-121343571D01*
X168248000Y-121343571D01*
X140019429Y-121729286D02*
X140019429Y-122443571D01*
X139519429Y-120943571D02*
X140019429Y-121729286D01*
X140519429Y-120943571D01*
X142162286Y-122443571D02*
X142162286Y-120943571D01*
X142662286Y-122015000D01*
X143162286Y-120943571D01*
X143162286Y-122443571D01*
X144090858Y-122443571D02*
X143948000Y-122372143D01*
X143876572Y-122300714D01*
X143805143Y-122157857D01*
X143805143Y-121729286D01*
X143876572Y-121586429D01*
X143948000Y-121515000D01*
X144090858Y-121443571D01*
X144305143Y-121443571D01*
X144448000Y-121515000D01*
X144519429Y-121586429D01*
X144590858Y-121729286D01*
X144590858Y-122157857D01*
X144519429Y-122300714D01*
X144448000Y-122372143D01*
X144305143Y-122443571D01*
X144090858Y-122443571D01*
X145019429Y-121443571D02*
X145590858Y-121443571D01*
X145233715Y-120943571D02*
X145233715Y-122229286D01*
X145305143Y-122372143D01*
X145448001Y-122443571D01*
X145590858Y-122443571D01*
X146305144Y-122443571D02*
X146162286Y-122372143D01*
X146090858Y-122300714D01*
X146019429Y-122157857D01*
X146019429Y-121729286D01*
X146090858Y-121586429D01*
X146162286Y-121515000D01*
X146305144Y-121443571D01*
X146519429Y-121443571D01*
X146662286Y-121515000D01*
X146733715Y-121586429D01*
X146805144Y-121729286D01*
X146805144Y-122157857D01*
X146733715Y-122300714D01*
X146662286Y-122372143D01*
X146519429Y-122443571D01*
X146305144Y-122443571D01*
X147448001Y-122443571D02*
X147448001Y-121443571D01*
X147448001Y-121729286D02*
X147519429Y-121586429D01*
X147590858Y-121515000D01*
X147733715Y-121443571D01*
X147876572Y-121443571D01*
X114126572Y-121743571D02*
X114912286Y-121743571D01*
X114126572Y-122743571D01*
X114912286Y-122743571D01*
X116626572Y-122743571D02*
X116626572Y-121243571D01*
X117126572Y-122315000D01*
X117626572Y-121243571D01*
X117626572Y-122743571D01*
X118555144Y-122743571D02*
X118412286Y-122672143D01*
X118340858Y-122600714D01*
X118269429Y-122457857D01*
X118269429Y-122029286D01*
X118340858Y-121886429D01*
X118412286Y-121815000D01*
X118555144Y-121743571D01*
X118769429Y-121743571D01*
X118912286Y-121815000D01*
X118983715Y-121886429D01*
X119055144Y-122029286D01*
X119055144Y-122457857D01*
X118983715Y-122600714D01*
X118912286Y-122672143D01*
X118769429Y-122743571D01*
X118555144Y-122743571D01*
X119483715Y-121743571D02*
X120055144Y-121743571D01*
X119698001Y-121243571D02*
X119698001Y-122529286D01*
X119769429Y-122672143D01*
X119912287Y-122743571D01*
X120055144Y-122743571D01*
X120769430Y-122743571D02*
X120626572Y-122672143D01*
X120555144Y-122600714D01*
X120483715Y-122457857D01*
X120483715Y-122029286D01*
X120555144Y-121886429D01*
X120626572Y-121815000D01*
X120769430Y-121743571D01*
X120983715Y-121743571D01*
X121126572Y-121815000D01*
X121198001Y-121886429D01*
X121269430Y-122029286D01*
X121269430Y-122457857D01*
X121198001Y-122600714D01*
X121126572Y-122672143D01*
X120983715Y-122743571D01*
X120769430Y-122743571D01*
X121912287Y-122743571D02*
X121912287Y-121743571D01*
X121912287Y-122029286D02*
X121983715Y-121886429D01*
X122055144Y-121815000D01*
X122198001Y-121743571D01*
X122340858Y-121743571D01*
D13*
X139390381Y-120999285D02*
X139390381Y-121570714D01*
X139390381Y-121285000D02*
X138390381Y-121285000D01*
X138533238Y-121380238D01*
X138628476Y-121475476D01*
X138676095Y-121570714D01*
X128524000Y-75565000D02*
G75*
G03X128524000Y-75565000I-2286000J0D01*
G01*
X157988000Y-76835000D02*
X175768000Y-76835000D01*
X175768000Y-76835000D02*
X175768000Y-74295000D01*
X175768000Y-74295000D02*
X157988000Y-74295000D01*
X155168000Y-77115000D02*
X156718000Y-77115000D01*
X157988000Y-76835000D02*
X157988000Y-74295000D01*
X156718000Y-74015000D02*
X155168000Y-74015000D01*
X155168000Y-74015000D02*
X155168000Y-77115000D01*
X179324000Y-118745000D02*
G75*
G03X179324000Y-118745000I-2286000J0D01*
G01*
X116998000Y-64365000D02*
X116998000Y-72365000D01*
X121998000Y-64365000D02*
X121998000Y-72365000D01*
X121998000Y-72365000D02*
X111998000Y-72365000D01*
X111998000Y-72365000D02*
X111998000Y-64365000D01*
X111998000Y-64365000D02*
X121998000Y-64365000D01*
X189248000Y-69615000D02*
X181248000Y-69615000D01*
X189248000Y-74615000D02*
X181248000Y-74615000D01*
X181248000Y-74615000D02*
X181248000Y-64615000D01*
X181248000Y-64615000D02*
X189248000Y-64615000D01*
X189248000Y-64615000D02*
X189248000Y-74615000D01*
D14*
X137818000Y-94865000D02*
X137818000Y-93865000D01*
X139178000Y-93865000D02*
X139178000Y-94865000D01*
X135818000Y-101365000D02*
X135818000Y-100365000D01*
X137178000Y-100365000D02*
X137178000Y-101365000D01*
X186418000Y-100825000D02*
X187688000Y-98285000D01*
X190228000Y-99555000D02*
X191498000Y-99555000D01*
X191498000Y-99555000D02*
X191498000Y-100825000D01*
X183878000Y-100825000D02*
X183878000Y-99555000D01*
X183878000Y-99555000D02*
X185148000Y-99555000D01*
X185148000Y-99555000D02*
X185148000Y-98285000D01*
X185148000Y-98285000D02*
X190228000Y-98285000D01*
X190228000Y-98285000D02*
X190228000Y-100825000D01*
X190228000Y-100825000D02*
X185148000Y-100825000D01*
X185148000Y-100825000D02*
X185148000Y-99555000D01*
X181338000Y-105905000D02*
X181338000Y-75425000D01*
X181338000Y-75425000D02*
X194038000Y-75425000D01*
X194038000Y-75425000D02*
X194038000Y-105905000D01*
X194038000Y-105905000D02*
X181338000Y-105905000D01*
D13*
X114835000Y-104266000D02*
X115060000Y-104266000D01*
X114835000Y-99616000D02*
X115160000Y-99616000D01*
X124785000Y-99616000D02*
X124460000Y-99616000D01*
X124785000Y-104266000D02*
X124460000Y-104266000D01*
X114835000Y-104266000D02*
X114835000Y-99616000D01*
X124785000Y-104266000D02*
X124785000Y-99616000D01*
X115060000Y-104266000D02*
X115060000Y-105341000D01*
D14*
X139608000Y-80455000D02*
X138348000Y-80455000D01*
X132788000Y-80455000D02*
X134048000Y-80455000D01*
X139608000Y-84215000D02*
X139608000Y-80455000D01*
X132788000Y-86465000D02*
X132788000Y-80455000D01*
D13*
X139023000Y-104190000D02*
X139248000Y-104190000D01*
X139023000Y-99540000D02*
X139348000Y-99540000D01*
X148973000Y-99540000D02*
X148648000Y-99540000D01*
X148973000Y-104190000D02*
X148648000Y-104190000D01*
X139023000Y-104190000D02*
X139023000Y-99540000D01*
X148973000Y-104190000D02*
X148973000Y-99540000D01*
X139248000Y-104190000D02*
X139248000Y-105265000D01*
X162023000Y-104190000D02*
X162248000Y-104190000D01*
X162023000Y-99540000D02*
X162348000Y-99540000D01*
X171973000Y-99540000D02*
X171648000Y-99540000D01*
X171973000Y-104190000D02*
X171648000Y-104190000D01*
X162023000Y-104190000D02*
X162023000Y-99540000D01*
X171973000Y-104190000D02*
X171973000Y-99540000D01*
X162248000Y-104190000D02*
X162248000Y-105265000D01*
X168998000Y-121365000D02*
X168998000Y-113365000D01*
X163998000Y-121365000D02*
X163998000Y-113365000D01*
X158998000Y-121365000D02*
X158998000Y-113365000D01*
X153998000Y-121365000D02*
X153998000Y-113365000D01*
X153998000Y-113365000D02*
X173998000Y-113365000D01*
X173998000Y-113365000D02*
X173998000Y-121365000D01*
X173998000Y-121365000D02*
X153998000Y-121365000D01*
D14*
X127080000Y-91181000D02*
X127780000Y-91181000D01*
X127780000Y-92381000D02*
X127080000Y-92381000D01*
X141698000Y-87315000D02*
X140698000Y-87315000D01*
X140698000Y-89015000D02*
X141698000Y-89015000D01*
X179098000Y-122515000D02*
X179098000Y-123215000D01*
X177898000Y-123215000D02*
X177898000Y-122515000D01*
X114564000Y-106505000D02*
X114564000Y-105505000D01*
X112864000Y-105505000D02*
X112864000Y-106505000D01*
X115904000Y-108961000D02*
X116604000Y-108961000D01*
X116604000Y-110161000D02*
X115904000Y-110161000D01*
X126072000Y-107537000D02*
X126072000Y-108537000D01*
X127772000Y-108537000D02*
X127772000Y-107537000D01*
X124040000Y-107537000D02*
X124040000Y-108537000D01*
X125740000Y-108537000D02*
X125740000Y-107537000D01*
X151148000Y-91265000D02*
X151848000Y-91265000D01*
X151848000Y-92465000D02*
X151148000Y-92465000D01*
X138848000Y-106365000D02*
X138848000Y-105365000D01*
X137148000Y-105365000D02*
X137148000Y-106365000D01*
X140148000Y-108765000D02*
X140848000Y-108765000D01*
X140848000Y-109965000D02*
X140148000Y-109965000D01*
X150148000Y-107365000D02*
X150148000Y-108365000D01*
X151848000Y-108365000D02*
X151848000Y-107365000D01*
X143148000Y-72765000D02*
X143848000Y-72765000D01*
X143848000Y-73965000D02*
X143148000Y-73965000D01*
X148148000Y-107365000D02*
X148148000Y-108365000D01*
X149848000Y-108365000D02*
X149848000Y-107365000D01*
X148148000Y-72765000D02*
X148848000Y-72765000D01*
X148848000Y-73965000D02*
X148148000Y-73965000D01*
X174148000Y-91265000D02*
X174848000Y-91265000D01*
X174848000Y-92465000D02*
X174148000Y-92465000D01*
X161848000Y-106365000D02*
X161848000Y-105365000D01*
X160148000Y-105365000D02*
X160148000Y-106365000D01*
X163148000Y-108765000D02*
X163848000Y-108765000D01*
X163848000Y-109965000D02*
X163148000Y-109965000D01*
X173148000Y-107365000D02*
X173148000Y-108365000D01*
X174848000Y-108365000D02*
X174848000Y-107365000D01*
X171148000Y-107365000D02*
X171148000Y-108365000D01*
X172848000Y-108365000D02*
X172848000Y-107365000D01*
X179758000Y-91945000D02*
X179758000Y-91015000D01*
X179758000Y-88785000D02*
X179758000Y-89715000D01*
X179758000Y-88785000D02*
X177598000Y-88785000D01*
X179758000Y-91945000D02*
X178298000Y-91945000D01*
X121162000Y-94821000D02*
X121162000Y-93821000D01*
X122522000Y-93821000D02*
X122522000Y-94821000D01*
X122686000Y-94821000D02*
X122686000Y-93821000D01*
X124046000Y-93821000D02*
X124046000Y-94821000D01*
X113034000Y-101425000D02*
X113034000Y-100425000D01*
X114394000Y-100425000D02*
X114394000Y-101425000D01*
X112018000Y-94821000D02*
X112018000Y-93821000D01*
X113378000Y-93821000D02*
X113378000Y-94821000D01*
X113542000Y-94821000D02*
X113542000Y-93821000D01*
X114902000Y-93821000D02*
X114902000Y-94821000D01*
X111510000Y-101425000D02*
X111510000Y-100425000D01*
X112870000Y-100425000D02*
X112870000Y-101425000D01*
X115066000Y-94821000D02*
X115066000Y-93821000D01*
X116426000Y-93821000D02*
X116426000Y-94821000D01*
X125734000Y-94821000D02*
X125734000Y-93821000D01*
X127094000Y-93821000D02*
X127094000Y-94821000D01*
X128618000Y-93821000D02*
X128618000Y-94821000D01*
X127258000Y-94821000D02*
X127258000Y-93821000D01*
X131666000Y-102457000D02*
X131666000Y-103457000D01*
X130306000Y-103457000D02*
X130306000Y-102457000D01*
X145318000Y-94865000D02*
X145318000Y-93865000D01*
X146678000Y-93865000D02*
X146678000Y-94865000D01*
X146818000Y-94865000D02*
X146818000Y-93865000D01*
X148178000Y-93865000D02*
X148178000Y-94865000D01*
X148318000Y-94865000D02*
X148318000Y-93865000D01*
X149678000Y-93865000D02*
X149678000Y-94865000D01*
X140818000Y-94865000D02*
X140818000Y-93865000D01*
X142178000Y-93865000D02*
X142178000Y-94865000D01*
X139318000Y-94865000D02*
X139318000Y-93865000D01*
X140678000Y-93865000D02*
X140678000Y-94865000D01*
X149818000Y-94865000D02*
X149818000Y-93865000D01*
X151178000Y-93865000D02*
X151178000Y-94865000D01*
X157178000Y-102365000D02*
X157178000Y-103365000D01*
X155818000Y-103365000D02*
X155818000Y-102365000D01*
X157698000Y-105745000D02*
X156698000Y-105745000D01*
X156698000Y-104385000D02*
X157698000Y-104385000D01*
X168318000Y-94865000D02*
X168318000Y-93865000D01*
X169678000Y-93865000D02*
X169678000Y-94865000D01*
X160318000Y-101365000D02*
X160318000Y-100365000D01*
X161678000Y-100365000D02*
X161678000Y-101365000D01*
X160818000Y-94865000D02*
X160818000Y-93865000D01*
X162178000Y-93865000D02*
X162178000Y-94865000D01*
X158818000Y-101365000D02*
X158818000Y-100365000D01*
X160178000Y-100365000D02*
X160178000Y-101365000D01*
X162318000Y-94865000D02*
X162318000Y-93865000D01*
X163678000Y-93865000D02*
X163678000Y-94865000D01*
X172818000Y-94865000D02*
X172818000Y-93865000D01*
X174178000Y-93865000D02*
X174178000Y-94865000D01*
X175568000Y-89115000D02*
X175568000Y-88115000D01*
X176928000Y-88115000D02*
X176928000Y-89115000D01*
X175678000Y-93865000D02*
X175678000Y-94865000D01*
X174318000Y-94865000D02*
X174318000Y-93865000D01*
X179318000Y-87365000D02*
X179318000Y-86365000D01*
X180678000Y-86365000D02*
X180678000Y-87365000D01*
X177568000Y-87365000D02*
X177568000Y-86365000D01*
X178928000Y-86365000D02*
X178928000Y-87365000D01*
X178818000Y-106365000D02*
X178818000Y-105365000D01*
X180178000Y-105365000D02*
X180178000Y-106365000D01*
X124210000Y-94821000D02*
X124210000Y-93821000D01*
X125570000Y-93821000D02*
X125570000Y-94821000D01*
X116590000Y-94821000D02*
X116590000Y-93821000D01*
X117950000Y-93821000D02*
X117950000Y-94821000D01*
X133190000Y-102457000D02*
X133190000Y-103457000D01*
X131830000Y-103457000D02*
X131830000Y-102457000D01*
X133698000Y-105645000D02*
X132698000Y-105645000D01*
X132698000Y-104285000D02*
X133698000Y-104285000D01*
X127884000Y-104973000D02*
X127884000Y-102973000D01*
X130024000Y-102973000D02*
X130024000Y-104973000D01*
X130024000Y-98401000D02*
X130024000Y-100401000D01*
X127884000Y-100401000D02*
X127884000Y-98401000D01*
X152678000Y-93865000D02*
X152678000Y-94865000D01*
X151318000Y-94865000D02*
X151318000Y-93865000D01*
X155678000Y-102365000D02*
X155678000Y-103365000D01*
X154318000Y-103365000D02*
X154318000Y-102365000D01*
X151568000Y-98365000D02*
X151568000Y-100365000D01*
X149428000Y-100365000D02*
X149428000Y-98365000D01*
X154068000Y-98365000D02*
X154068000Y-100365000D01*
X151928000Y-100365000D02*
X151928000Y-98365000D01*
X169818000Y-94865000D02*
X169818000Y-93865000D01*
X171178000Y-93865000D02*
X171178000Y-94865000D01*
X159318000Y-94865000D02*
X159318000Y-93865000D01*
X160678000Y-93865000D02*
X160678000Y-94865000D01*
X178678000Y-102365000D02*
X178678000Y-103365000D01*
X177318000Y-103365000D02*
X177318000Y-102365000D01*
X180178000Y-102365000D02*
X180178000Y-103365000D01*
X178818000Y-103365000D02*
X178818000Y-102365000D01*
X177068000Y-98365000D02*
X177068000Y-100365000D01*
X174928000Y-100365000D02*
X174928000Y-98365000D01*
D13*
X181248000Y-121365000D02*
X189248000Y-121365000D01*
X181248000Y-116365000D02*
X189248000Y-116365000D01*
X181248000Y-111365000D02*
X189248000Y-111365000D01*
X181248000Y-106365000D02*
X189248000Y-106365000D01*
X189248000Y-106365000D02*
X189248000Y-126365000D01*
X189248000Y-126365000D02*
X181248000Y-126365000D01*
X181248000Y-126365000D02*
X181248000Y-106365000D01*
X126998000Y-121365000D02*
X126998000Y-113365000D01*
X121998000Y-121365000D02*
X121998000Y-113365000D01*
X116998000Y-121365000D02*
X116998000Y-113365000D01*
X111998000Y-121365000D02*
X111998000Y-113365000D01*
X111998000Y-113365000D02*
X131998000Y-113365000D01*
X131998000Y-113365000D02*
X131998000Y-121365000D01*
X131998000Y-121365000D02*
X111998000Y-121365000D01*
X148498000Y-72365000D02*
X148498000Y-64365000D01*
X143498000Y-72365000D02*
X143498000Y-64365000D01*
X138498000Y-72365000D02*
X138498000Y-64365000D01*
X133498000Y-72365000D02*
X133498000Y-64365000D01*
X133498000Y-64365000D02*
X153498000Y-64365000D01*
X153498000Y-64365000D02*
X153498000Y-72365000D01*
X153498000Y-72365000D02*
X133498000Y-72365000D01*
X147998000Y-121365000D02*
X147998000Y-113365000D01*
X142998000Y-121365000D02*
X142998000Y-113365000D01*
X137998000Y-121365000D02*
X137998000Y-113365000D01*
X132998000Y-121365000D02*
X132998000Y-113365000D01*
X132998000Y-113365000D02*
X152998000Y-113365000D01*
X152998000Y-113365000D02*
X152998000Y-121365000D01*
X152998000Y-121365000D02*
X132998000Y-121365000D01*
D14*
X125344000Y-104973000D02*
X125344000Y-102973000D01*
X127484000Y-102973000D02*
X127484000Y-104973000D01*
X127484000Y-98401000D02*
X127484000Y-100401000D01*
X125344000Y-100401000D02*
X125344000Y-98401000D01*
X137318000Y-101365000D02*
X137318000Y-100365000D01*
X138678000Y-100365000D02*
X138678000Y-101365000D01*
X136318000Y-94865000D02*
X136318000Y-93865000D01*
X137678000Y-93865000D02*
X137678000Y-94865000D01*
X149428000Y-104865000D02*
X149428000Y-102865000D01*
X151568000Y-102865000D02*
X151568000Y-104865000D01*
X151928000Y-104865000D02*
X151928000Y-102865000D01*
X154068000Y-102865000D02*
X154068000Y-104865000D01*
X171318000Y-94865000D02*
X171318000Y-93865000D01*
X172678000Y-93865000D02*
X172678000Y-94865000D01*
X163818000Y-94865000D02*
X163818000Y-93865000D01*
X165178000Y-93865000D02*
X165178000Y-94865000D01*
X172428000Y-104865000D02*
X172428000Y-102865000D01*
X174568000Y-102865000D02*
X174568000Y-104865000D01*
X174928000Y-104865000D02*
X174928000Y-102865000D01*
X177068000Y-102865000D02*
X177068000Y-104865000D01*
X174568000Y-98365000D02*
X174568000Y-100365000D01*
X172428000Y-100365000D02*
X172428000Y-98365000D01*
D13*
X140208000Y-125095000D02*
X157988000Y-125095000D01*
X157988000Y-125095000D02*
X157988000Y-122555000D01*
X157988000Y-122555000D02*
X140208000Y-122555000D01*
X137388000Y-125375000D02*
X138938000Y-125375000D01*
X140208000Y-125095000D02*
X140208000Y-122555000D01*
X138938000Y-122275000D02*
X137388000Y-122275000D01*
X137388000Y-122275000D02*
X137388000Y-125375000D01*
X163068000Y-125095000D02*
X175768000Y-125095000D01*
X175768000Y-125095000D02*
X175768000Y-122555000D01*
X175768000Y-122555000D02*
X163068000Y-122555000D01*
X160248000Y-125375000D02*
X161798000Y-125375000D01*
X163068000Y-125095000D02*
X163068000Y-122555000D01*
X161798000Y-122275000D02*
X160248000Y-122275000D01*
X160248000Y-122275000D02*
X160248000Y-125375000D01*
X131064000Y-76835000D02*
X153924000Y-76835000D01*
X153924000Y-76835000D02*
X153924000Y-74295000D01*
X153924000Y-74295000D02*
X131064000Y-74295000D01*
X128244000Y-77115000D02*
X129794000Y-77115000D01*
X131064000Y-76835000D02*
X131064000Y-74295000D01*
X129794000Y-74015000D02*
X128244000Y-74015000D01*
X128244000Y-74015000D02*
X128244000Y-77115000D01*
X127254000Y-123825000D02*
G75*
G03X127254000Y-123825000I-2286000J0D01*
G01*
X128498000Y-72365000D02*
X128498000Y-64365000D01*
X123498000Y-72365000D02*
X123498000Y-64365000D01*
X123498000Y-64365000D02*
X133498000Y-64365000D01*
X133498000Y-64365000D02*
X133498000Y-72365000D01*
X133498000Y-72365000D02*
X123498000Y-72365000D01*
D14*
X134448000Y-89165000D02*
X138748000Y-89165000D01*
X138748000Y-89165000D02*
X138748000Y-87165000D01*
X138748000Y-87165000D02*
X134448000Y-87165000D01*
X193898000Y-111515000D02*
X193898000Y-107215000D01*
X193898000Y-107215000D02*
X191898000Y-107215000D01*
X191898000Y-107215000D02*
X191898000Y-111515000D01*
X128888000Y-86315000D02*
X127468000Y-86315000D01*
X129648000Y-79715000D02*
X127468000Y-79715000D01*
X123048000Y-79715000D02*
X125228000Y-79715000D01*
X123808000Y-86315000D02*
X125228000Y-86315000D01*
X129648000Y-79715000D02*
X129648000Y-85555000D01*
X129648000Y-85555000D02*
X128888000Y-86315000D01*
X123808000Y-86315000D02*
X123048000Y-85555000D01*
X123048000Y-85555000D02*
X123048000Y-79715000D01*
X140758000Y-78665000D02*
X142178000Y-78665000D01*
X139998000Y-85265000D02*
X142178000Y-85265000D01*
X146598000Y-85265000D02*
X144418000Y-85265000D01*
X145838000Y-78665000D02*
X144418000Y-78665000D01*
X139998000Y-85265000D02*
X139998000Y-79425000D01*
X139998000Y-79425000D02*
X140758000Y-78665000D01*
X145838000Y-78665000D02*
X146598000Y-79425000D01*
X146598000Y-79425000D02*
X146598000Y-85265000D01*
X129398000Y-112305000D02*
X129398000Y-110885000D01*
X135998000Y-113065000D02*
X135998000Y-110885000D01*
X135998000Y-106465000D02*
X135998000Y-108645000D01*
X129398000Y-107225000D02*
X129398000Y-108645000D01*
X135998000Y-113065000D02*
X130158000Y-113065000D01*
X130158000Y-113065000D02*
X129398000Y-112305000D01*
X129398000Y-107225000D02*
X130158000Y-106465000D01*
X130158000Y-106465000D02*
X135998000Y-106465000D01*
X153198000Y-112205000D02*
X153198000Y-110785000D01*
X159798000Y-112965000D02*
X159798000Y-110785000D01*
X159798000Y-106365000D02*
X159798000Y-108545000D01*
X153198000Y-107125000D02*
X153198000Y-108545000D01*
X159798000Y-112965000D02*
X153958000Y-112965000D01*
X153958000Y-112965000D02*
X153198000Y-112205000D01*
X153198000Y-107125000D02*
X153958000Y-106365000D01*
X153958000Y-106365000D02*
X159798000Y-106365000D01*
X175158000Y-108265000D02*
X176578000Y-108265000D01*
X174398000Y-114865000D02*
X176578000Y-114865000D01*
X180998000Y-114865000D02*
X178818000Y-114865000D01*
X180238000Y-108265000D02*
X178818000Y-108265000D01*
X174398000Y-114865000D02*
X174398000Y-109025000D01*
X174398000Y-109025000D02*
X175158000Y-108265000D01*
X180238000Y-108265000D02*
X180998000Y-109025000D01*
X180998000Y-109025000D02*
X180998000Y-114865000D01*
X112298000Y-84315000D02*
X112298000Y-85315000D01*
X113998000Y-85315000D02*
X113998000Y-84315000D01*
X120198000Y-87115000D02*
X115898000Y-87115000D01*
X115898000Y-87115000D02*
X115898000Y-89115000D01*
X115898000Y-89115000D02*
X120198000Y-89115000D01*
D13*
X116162000Y-86455000D02*
X116162000Y-81375000D01*
X116162000Y-81375000D02*
X120734000Y-81375000D01*
X120734000Y-81375000D02*
X120734000Y-86455000D01*
X120734000Y-86455000D02*
X116162000Y-86455000D01*
X117686000Y-86455000D02*
X117686000Y-85947000D01*
X117686000Y-85947000D02*
X118956000Y-85947000D01*
X118956000Y-85947000D02*
X118956000Y-86455000D01*
X125023714Y-72969381D02*
X125023714Y-71969381D01*
X125404667Y-71969381D01*
X125499905Y-72017000D01*
X125547524Y-72064619D01*
X125595143Y-72159857D01*
X125595143Y-72302714D01*
X125547524Y-72397952D01*
X125499905Y-72445571D01*
X125404667Y-72493190D01*
X125023714Y-72493190D01*
X126547524Y-72969381D02*
X125976095Y-72969381D01*
X126261809Y-72969381D02*
X126261809Y-71969381D01*
X126166571Y-72112238D01*
X126071333Y-72207476D01*
X125976095Y-72255095D01*
X126928476Y-72064619D02*
X126976095Y-72017000D01*
X127071333Y-71969381D01*
X127309429Y-71969381D01*
X127404667Y-72017000D01*
X127452286Y-72064619D01*
X127499905Y-72159857D01*
X127499905Y-72255095D01*
X127452286Y-72397952D01*
X126880857Y-72969381D01*
X127499905Y-72969381D01*
X155979905Y-70917381D02*
X155979905Y-69917381D01*
X156360858Y-69917381D01*
X156456096Y-69965000D01*
X156503715Y-70012619D01*
X156551334Y-70107857D01*
X156551334Y-70250714D01*
X156503715Y-70345952D01*
X156456096Y-70393571D01*
X156360858Y-70441190D01*
X155979905Y-70441190D01*
X157408477Y-69917381D02*
X157218000Y-69917381D01*
X157122762Y-69965000D01*
X157075143Y-70012619D01*
X156979905Y-70155476D01*
X156932286Y-70345952D01*
X156932286Y-70726905D01*
X156979905Y-70822143D01*
X157027524Y-70869762D01*
X157122762Y-70917381D01*
X157313239Y-70917381D01*
X157408477Y-70869762D01*
X157456096Y-70822143D01*
X157503715Y-70726905D01*
X157503715Y-70488810D01*
X157456096Y-70393571D01*
X157408477Y-70345952D01*
X157313239Y-70298333D01*
X157122762Y-70298333D01*
X157027524Y-70345952D01*
X156979905Y-70393571D01*
X156932286Y-70488810D01*
X175823714Y-116149381D02*
X175823714Y-115149381D01*
X176204667Y-115149381D01*
X176299905Y-115197000D01*
X176347524Y-115244619D01*
X176395143Y-115339857D01*
X176395143Y-115482714D01*
X176347524Y-115577952D01*
X176299905Y-115625571D01*
X176204667Y-115673190D01*
X175823714Y-115673190D01*
X177347524Y-116149381D02*
X176776095Y-116149381D01*
X177061809Y-116149381D02*
X177061809Y-115149381D01*
X176966571Y-115292238D01*
X176871333Y-115387476D01*
X176776095Y-115435095D01*
X177966571Y-115149381D02*
X178061810Y-115149381D01*
X178157048Y-115197000D01*
X178204667Y-115244619D01*
X178252286Y-115339857D01*
X178299905Y-115530333D01*
X178299905Y-115768429D01*
X178252286Y-115958905D01*
X178204667Y-116054143D01*
X178157048Y-116101762D01*
X178061810Y-116149381D01*
X177966571Y-116149381D01*
X177871333Y-116101762D01*
X177823714Y-116054143D01*
X177776095Y-115958905D01*
X177728476Y-115768429D01*
X177728476Y-115530333D01*
X177776095Y-115339857D01*
X177823714Y-115244619D01*
X177871333Y-115197000D01*
X177966571Y-115149381D01*
X115783714Y-73817381D02*
X115783714Y-72817381D01*
X116164667Y-72817381D01*
X116259905Y-72865000D01*
X116307524Y-72912619D01*
X116355143Y-73007857D01*
X116355143Y-73150714D01*
X116307524Y-73245952D01*
X116259905Y-73293571D01*
X116164667Y-73341190D01*
X115783714Y-73341190D01*
X117307524Y-73817381D02*
X116736095Y-73817381D01*
X117021809Y-73817381D02*
X117021809Y-72817381D01*
X116926571Y-72960238D01*
X116831333Y-73055476D01*
X116736095Y-73103095D01*
X117640857Y-72817381D02*
X118259905Y-72817381D01*
X117926571Y-73198333D01*
X118069429Y-73198333D01*
X118164667Y-73245952D01*
X118212286Y-73293571D01*
X118259905Y-73388810D01*
X118259905Y-73626905D01*
X118212286Y-73722143D01*
X118164667Y-73769762D01*
X118069429Y-73817381D01*
X117783714Y-73817381D01*
X117688476Y-73769762D01*
X117640857Y-73722143D01*
X180700381Y-70829286D02*
X179700381Y-70829286D01*
X179700381Y-70448333D01*
X179748000Y-70353095D01*
X179795619Y-70305476D01*
X179890857Y-70257857D01*
X180033714Y-70257857D01*
X180128952Y-70305476D01*
X180176571Y-70353095D01*
X180224190Y-70448333D01*
X180224190Y-70829286D01*
X180700381Y-69305476D02*
X180700381Y-69876905D01*
X180700381Y-69591191D02*
X179700381Y-69591191D01*
X179843238Y-69686429D01*
X179938476Y-69781667D01*
X179986095Y-69876905D01*
X180033714Y-68448333D02*
X180700381Y-68448333D01*
X179652762Y-68686429D02*
X180367048Y-68924524D01*
X180367048Y-68305476D01*
X140400381Y-95007857D02*
X139924190Y-95341191D01*
X140400381Y-95579286D02*
X139400381Y-95579286D01*
X139400381Y-95198333D01*
X139448000Y-95103095D01*
X139495619Y-95055476D01*
X139590857Y-95007857D01*
X139733714Y-95007857D01*
X139828952Y-95055476D01*
X139876571Y-95103095D01*
X139924190Y-95198333D01*
X139924190Y-95579286D01*
X139495619Y-94626905D02*
X139448000Y-94579286D01*
X139400381Y-94484048D01*
X139400381Y-94245952D01*
X139448000Y-94150714D01*
X139495619Y-94103095D01*
X139590857Y-94055476D01*
X139686095Y-94055476D01*
X139828952Y-94103095D01*
X140400381Y-94674524D01*
X140400381Y-94055476D01*
X139400381Y-93722143D02*
X139400381Y-93103095D01*
X139781333Y-93436429D01*
X139781333Y-93293571D01*
X139828952Y-93198333D01*
X139876571Y-93150714D01*
X139971810Y-93103095D01*
X140209905Y-93103095D01*
X140305143Y-93150714D01*
X140352762Y-93198333D01*
X140400381Y-93293571D01*
X140400381Y-93579286D01*
X140352762Y-93674524D01*
X140305143Y-93722143D01*
X138400381Y-101507857D02*
X137924190Y-101841191D01*
X138400381Y-102079286D02*
X137400381Y-102079286D01*
X137400381Y-101698333D01*
X137448000Y-101603095D01*
X137495619Y-101555476D01*
X137590857Y-101507857D01*
X137733714Y-101507857D01*
X137828952Y-101555476D01*
X137876571Y-101603095D01*
X137924190Y-101698333D01*
X137924190Y-102079286D01*
X137495619Y-101126905D02*
X137448000Y-101079286D01*
X137400381Y-100984048D01*
X137400381Y-100745952D01*
X137448000Y-100650714D01*
X137495619Y-100603095D01*
X137590857Y-100555476D01*
X137686095Y-100555476D01*
X137828952Y-100603095D01*
X138400381Y-101174524D01*
X138400381Y-100555476D01*
X137733714Y-99698333D02*
X138400381Y-99698333D01*
X137352762Y-99936429D02*
X138067048Y-100174524D01*
X138067048Y-99555476D01*
X180450381Y-91186428D02*
X179974190Y-91519762D01*
X180450381Y-91757857D02*
X179450381Y-91757857D01*
X179450381Y-91376904D01*
X179498000Y-91281666D01*
X179545619Y-91234047D01*
X179640857Y-91186428D01*
X179783714Y-91186428D01*
X179878952Y-91234047D01*
X179926571Y-91281666D01*
X179974190Y-91376904D01*
X179974190Y-91757857D01*
X180450381Y-90281666D02*
X180450381Y-90757857D01*
X179450381Y-90757857D01*
X180450381Y-89424523D02*
X180450381Y-89995952D01*
X180450381Y-89710238D02*
X179450381Y-89710238D01*
X179593238Y-89805476D01*
X179688476Y-89900714D01*
X179736095Y-89995952D01*
X113362381Y-102702905D02*
X114171905Y-102702905D01*
X114267143Y-102655286D01*
X114314762Y-102607667D01*
X114362381Y-102512429D01*
X114362381Y-102321952D01*
X114314762Y-102226714D01*
X114267143Y-102179095D01*
X114171905Y-102131476D01*
X113362381Y-102131476D01*
X114362381Y-101131476D02*
X114362381Y-101702905D01*
X114362381Y-101417191D02*
X113362381Y-101417191D01*
X113505238Y-101512429D01*
X113600476Y-101607667D01*
X113648095Y-101702905D01*
X131150381Y-83126905D02*
X131959905Y-83126905D01*
X132055143Y-83079286D01*
X132102762Y-83031667D01*
X132150381Y-82936429D01*
X132150381Y-82745952D01*
X132102762Y-82650714D01*
X132055143Y-82603095D01*
X131959905Y-82555476D01*
X131150381Y-82555476D01*
X131245619Y-82126905D02*
X131198000Y-82079286D01*
X131150381Y-81984048D01*
X131150381Y-81745952D01*
X131198000Y-81650714D01*
X131245619Y-81603095D01*
X131340857Y-81555476D01*
X131436095Y-81555476D01*
X131578952Y-81603095D01*
X132150381Y-82174524D01*
X132150381Y-81555476D01*
X137550381Y-102626905D02*
X138359905Y-102626905D01*
X138455143Y-102579286D01*
X138502762Y-102531667D01*
X138550381Y-102436429D01*
X138550381Y-102245952D01*
X138502762Y-102150714D01*
X138455143Y-102103095D01*
X138359905Y-102055476D01*
X137550381Y-102055476D01*
X137550381Y-101674524D02*
X137550381Y-101055476D01*
X137931333Y-101388810D01*
X137931333Y-101245952D01*
X137978952Y-101150714D01*
X138026571Y-101103095D01*
X138121810Y-101055476D01*
X138359905Y-101055476D01*
X138455143Y-101103095D01*
X138502762Y-101150714D01*
X138550381Y-101245952D01*
X138550381Y-101531667D01*
X138502762Y-101626905D01*
X138455143Y-101674524D01*
X160550381Y-102626905D02*
X161359905Y-102626905D01*
X161455143Y-102579286D01*
X161502762Y-102531667D01*
X161550381Y-102436429D01*
X161550381Y-102245952D01*
X161502762Y-102150714D01*
X161455143Y-102103095D01*
X161359905Y-102055476D01*
X160550381Y-102055476D01*
X160883714Y-101150714D02*
X161550381Y-101150714D01*
X160502762Y-101388810D02*
X161217048Y-101626905D01*
X161217048Y-101007857D01*
X162783714Y-112817381D02*
X162783714Y-111817381D01*
X163164667Y-111817381D01*
X163259905Y-111865000D01*
X163307524Y-111912619D01*
X163355143Y-112007857D01*
X163355143Y-112150714D01*
X163307524Y-112245952D01*
X163259905Y-112293571D01*
X163164667Y-112341190D01*
X162783714Y-112341190D01*
X164307524Y-112817381D02*
X163736095Y-112817381D01*
X164021809Y-112817381D02*
X164021809Y-111817381D01*
X163926571Y-111960238D01*
X163831333Y-112055476D01*
X163736095Y-112103095D01*
X165212286Y-111817381D02*
X164736095Y-111817381D01*
X164688476Y-112293571D01*
X164736095Y-112245952D01*
X164831333Y-112198333D01*
X165069429Y-112198333D01*
X165164667Y-112245952D01*
X165212286Y-112293571D01*
X165259905Y-112388810D01*
X165259905Y-112626905D01*
X165212286Y-112722143D01*
X165164667Y-112769762D01*
X165069429Y-112817381D01*
X164831333Y-112817381D01*
X164736095Y-112769762D01*
X164688476Y-112722143D01*
X127263334Y-90638143D02*
X127215715Y-90685762D01*
X127072858Y-90733381D01*
X126977620Y-90733381D01*
X126834762Y-90685762D01*
X126739524Y-90590524D01*
X126691905Y-90495286D01*
X126644286Y-90304810D01*
X126644286Y-90161952D01*
X126691905Y-89971476D01*
X126739524Y-89876238D01*
X126834762Y-89781000D01*
X126977620Y-89733381D01*
X127072858Y-89733381D01*
X127215715Y-89781000D01*
X127263334Y-89828619D01*
X128215715Y-90733381D02*
X127644286Y-90733381D01*
X127930000Y-90733381D02*
X127930000Y-89733381D01*
X127834762Y-89876238D01*
X127739524Y-89971476D01*
X127644286Y-90019095D01*
X141031334Y-87022143D02*
X140983715Y-87069762D01*
X140840858Y-87117381D01*
X140745620Y-87117381D01*
X140602762Y-87069762D01*
X140507524Y-86974524D01*
X140459905Y-86879286D01*
X140412286Y-86688810D01*
X140412286Y-86545952D01*
X140459905Y-86355476D01*
X140507524Y-86260238D01*
X140602762Y-86165000D01*
X140745620Y-86117381D01*
X140840858Y-86117381D01*
X140983715Y-86165000D01*
X141031334Y-86212619D01*
X141412286Y-86212619D02*
X141459905Y-86165000D01*
X141555143Y-86117381D01*
X141793239Y-86117381D01*
X141888477Y-86165000D01*
X141936096Y-86212619D01*
X141983715Y-86307857D01*
X141983715Y-86403095D01*
X141936096Y-86545952D01*
X141364667Y-87117381D01*
X141983715Y-87117381D01*
X180355143Y-123031666D02*
X180402762Y-123079285D01*
X180450381Y-123222142D01*
X180450381Y-123317380D01*
X180402762Y-123460238D01*
X180307524Y-123555476D01*
X180212286Y-123603095D01*
X180021810Y-123650714D01*
X179878952Y-123650714D01*
X179688476Y-123603095D01*
X179593238Y-123555476D01*
X179498000Y-123460238D01*
X179450381Y-123317380D01*
X179450381Y-123222142D01*
X179498000Y-123079285D01*
X179545619Y-123031666D01*
X179783714Y-122174523D02*
X180450381Y-122174523D01*
X179402762Y-122412619D02*
X180117048Y-122650714D01*
X180117048Y-122031666D01*
X115571143Y-106171666D02*
X115618762Y-106219285D01*
X115666381Y-106362142D01*
X115666381Y-106457380D01*
X115618762Y-106600238D01*
X115523524Y-106695476D01*
X115428286Y-106743095D01*
X115237810Y-106790714D01*
X115094952Y-106790714D01*
X114904476Y-106743095D01*
X114809238Y-106695476D01*
X114714000Y-106600238D01*
X114666381Y-106457380D01*
X114666381Y-106362142D01*
X114714000Y-106219285D01*
X114761619Y-106171666D01*
X114666381Y-105266904D02*
X114666381Y-105743095D01*
X115142571Y-105790714D01*
X115094952Y-105743095D01*
X115047333Y-105647857D01*
X115047333Y-105409761D01*
X115094952Y-105314523D01*
X115142571Y-105266904D01*
X115237810Y-105219285D01*
X115475905Y-105219285D01*
X115571143Y-105266904D01*
X115618762Y-105314523D01*
X115666381Y-105409761D01*
X115666381Y-105647857D01*
X115618762Y-105743095D01*
X115571143Y-105790714D01*
X116087334Y-108418143D02*
X116039715Y-108465762D01*
X115896858Y-108513381D01*
X115801620Y-108513381D01*
X115658762Y-108465762D01*
X115563524Y-108370524D01*
X115515905Y-108275286D01*
X115468286Y-108084810D01*
X115468286Y-107941952D01*
X115515905Y-107751476D01*
X115563524Y-107656238D01*
X115658762Y-107561000D01*
X115801620Y-107513381D01*
X115896858Y-107513381D01*
X116039715Y-107561000D01*
X116087334Y-107608619D01*
X116944477Y-107513381D02*
X116754000Y-107513381D01*
X116658762Y-107561000D01*
X116611143Y-107608619D01*
X116515905Y-107751476D01*
X116468286Y-107941952D01*
X116468286Y-108322905D01*
X116515905Y-108418143D01*
X116563524Y-108465762D01*
X116658762Y-108513381D01*
X116849239Y-108513381D01*
X116944477Y-108465762D01*
X116992096Y-108418143D01*
X117039715Y-108322905D01*
X117039715Y-108084810D01*
X116992096Y-107989571D01*
X116944477Y-107941952D01*
X116849239Y-107894333D01*
X116658762Y-107894333D01*
X116563524Y-107941952D01*
X116515905Y-107989571D01*
X116468286Y-108084810D01*
X125779143Y-108203666D02*
X125826762Y-108251285D01*
X125874381Y-108394142D01*
X125874381Y-108489380D01*
X125826762Y-108632238D01*
X125731524Y-108727476D01*
X125636286Y-108775095D01*
X125445810Y-108822714D01*
X125302952Y-108822714D01*
X125112476Y-108775095D01*
X125017238Y-108727476D01*
X124922000Y-108632238D01*
X124874381Y-108489380D01*
X124874381Y-108394142D01*
X124922000Y-108251285D01*
X124969619Y-108203666D01*
X124874381Y-107870333D02*
X124874381Y-107203666D01*
X125874381Y-107632238D01*
X123747143Y-108203666D02*
X123794762Y-108251285D01*
X123842381Y-108394142D01*
X123842381Y-108489380D01*
X123794762Y-108632238D01*
X123699524Y-108727476D01*
X123604286Y-108775095D01*
X123413810Y-108822714D01*
X123270952Y-108822714D01*
X123080476Y-108775095D01*
X122985238Y-108727476D01*
X122890000Y-108632238D01*
X122842381Y-108489380D01*
X122842381Y-108394142D01*
X122890000Y-108251285D01*
X122937619Y-108203666D01*
X123842381Y-107727476D02*
X123842381Y-107537000D01*
X123794762Y-107441761D01*
X123747143Y-107394142D01*
X123604286Y-107298904D01*
X123413810Y-107251285D01*
X123032857Y-107251285D01*
X122937619Y-107298904D01*
X122890000Y-107346523D01*
X122842381Y-107441761D01*
X122842381Y-107632238D01*
X122890000Y-107727476D01*
X122937619Y-107775095D01*
X123032857Y-107822714D01*
X123270952Y-107822714D01*
X123366190Y-107775095D01*
X123413810Y-107727476D01*
X123461429Y-107632238D01*
X123461429Y-107441761D01*
X123413810Y-107346523D01*
X123366190Y-107298904D01*
X123270952Y-107251285D01*
X150855143Y-90722143D02*
X150807524Y-90769762D01*
X150664667Y-90817381D01*
X150569429Y-90817381D01*
X150426571Y-90769762D01*
X150331333Y-90674524D01*
X150283714Y-90579286D01*
X150236095Y-90388810D01*
X150236095Y-90245952D01*
X150283714Y-90055476D01*
X150331333Y-89960238D01*
X150426571Y-89865000D01*
X150569429Y-89817381D01*
X150664667Y-89817381D01*
X150807524Y-89865000D01*
X150855143Y-89912619D01*
X151807524Y-90817381D02*
X151236095Y-90817381D01*
X151521809Y-90817381D02*
X151521809Y-89817381D01*
X151426571Y-89960238D01*
X151331333Y-90055476D01*
X151236095Y-90103095D01*
X152759905Y-90817381D02*
X152188476Y-90817381D01*
X152474190Y-90817381D02*
X152474190Y-89817381D01*
X152378952Y-89960238D01*
X152283714Y-90055476D01*
X152188476Y-90103095D01*
X139855143Y-106507857D02*
X139902762Y-106555476D01*
X139950381Y-106698333D01*
X139950381Y-106793571D01*
X139902762Y-106936429D01*
X139807524Y-107031667D01*
X139712286Y-107079286D01*
X139521810Y-107126905D01*
X139378952Y-107126905D01*
X139188476Y-107079286D01*
X139093238Y-107031667D01*
X138998000Y-106936429D01*
X138950381Y-106793571D01*
X138950381Y-106698333D01*
X138998000Y-106555476D01*
X139045619Y-106507857D01*
X139950381Y-105555476D02*
X139950381Y-106126905D01*
X139950381Y-105841191D02*
X138950381Y-105841191D01*
X139093238Y-105936429D01*
X139188476Y-106031667D01*
X139236095Y-106126905D01*
X139045619Y-105174524D02*
X138998000Y-105126905D01*
X138950381Y-105031667D01*
X138950381Y-104793571D01*
X138998000Y-104698333D01*
X139045619Y-104650714D01*
X139140857Y-104603095D01*
X139236095Y-104603095D01*
X139378952Y-104650714D01*
X139950381Y-105222143D01*
X139950381Y-104603095D01*
X139855143Y-108222143D02*
X139807524Y-108269762D01*
X139664667Y-108317381D01*
X139569429Y-108317381D01*
X139426571Y-108269762D01*
X139331333Y-108174524D01*
X139283714Y-108079286D01*
X139236095Y-107888810D01*
X139236095Y-107745952D01*
X139283714Y-107555476D01*
X139331333Y-107460238D01*
X139426571Y-107365000D01*
X139569429Y-107317381D01*
X139664667Y-107317381D01*
X139807524Y-107365000D01*
X139855143Y-107412619D01*
X140807524Y-108317381D02*
X140236095Y-108317381D01*
X140521809Y-108317381D02*
X140521809Y-107317381D01*
X140426571Y-107460238D01*
X140331333Y-107555476D01*
X140236095Y-107603095D01*
X141140857Y-107317381D02*
X141759905Y-107317381D01*
X141426571Y-107698333D01*
X141569429Y-107698333D01*
X141664667Y-107745952D01*
X141712286Y-107793571D01*
X141759905Y-107888810D01*
X141759905Y-108126905D01*
X141712286Y-108222143D01*
X141664667Y-108269762D01*
X141569429Y-108317381D01*
X141283714Y-108317381D01*
X141188476Y-108269762D01*
X141140857Y-108222143D01*
X149855143Y-108507857D02*
X149902762Y-108555476D01*
X149950381Y-108698333D01*
X149950381Y-108793571D01*
X149902762Y-108936429D01*
X149807524Y-109031667D01*
X149712286Y-109079286D01*
X149521810Y-109126905D01*
X149378952Y-109126905D01*
X149188476Y-109079286D01*
X149093238Y-109031667D01*
X148998000Y-108936429D01*
X148950381Y-108793571D01*
X148950381Y-108698333D01*
X148998000Y-108555476D01*
X149045619Y-108507857D01*
X149950381Y-107555476D02*
X149950381Y-108126905D01*
X149950381Y-107841191D02*
X148950381Y-107841191D01*
X149093238Y-107936429D01*
X149188476Y-108031667D01*
X149236095Y-108126905D01*
X149283714Y-106698333D02*
X149950381Y-106698333D01*
X148902762Y-106936429D02*
X149617048Y-107174524D01*
X149617048Y-106555476D01*
X142855143Y-72222143D02*
X142807524Y-72269762D01*
X142664667Y-72317381D01*
X142569429Y-72317381D01*
X142426571Y-72269762D01*
X142331333Y-72174524D01*
X142283714Y-72079286D01*
X142236095Y-71888810D01*
X142236095Y-71745952D01*
X142283714Y-71555476D01*
X142331333Y-71460238D01*
X142426571Y-71365000D01*
X142569429Y-71317381D01*
X142664667Y-71317381D01*
X142807524Y-71365000D01*
X142855143Y-71412619D01*
X143807524Y-72317381D02*
X143236095Y-72317381D01*
X143521809Y-72317381D02*
X143521809Y-71317381D01*
X143426571Y-71460238D01*
X143331333Y-71555476D01*
X143236095Y-71603095D01*
X144712286Y-71317381D02*
X144236095Y-71317381D01*
X144188476Y-71793571D01*
X144236095Y-71745952D01*
X144331333Y-71698333D01*
X144569429Y-71698333D01*
X144664667Y-71745952D01*
X144712286Y-71793571D01*
X144759905Y-71888810D01*
X144759905Y-72126905D01*
X144712286Y-72222143D01*
X144664667Y-72269762D01*
X144569429Y-72317381D01*
X144331333Y-72317381D01*
X144236095Y-72269762D01*
X144188476Y-72222143D01*
X147855143Y-108507857D02*
X147902762Y-108555476D01*
X147950381Y-108698333D01*
X147950381Y-108793571D01*
X147902762Y-108936429D01*
X147807524Y-109031667D01*
X147712286Y-109079286D01*
X147521810Y-109126905D01*
X147378952Y-109126905D01*
X147188476Y-109079286D01*
X147093238Y-109031667D01*
X146998000Y-108936429D01*
X146950381Y-108793571D01*
X146950381Y-108698333D01*
X146998000Y-108555476D01*
X147045619Y-108507857D01*
X147950381Y-107555476D02*
X147950381Y-108126905D01*
X147950381Y-107841191D02*
X146950381Y-107841191D01*
X147093238Y-107936429D01*
X147188476Y-108031667D01*
X147236095Y-108126905D01*
X146950381Y-106698333D02*
X146950381Y-106888810D01*
X146998000Y-106984048D01*
X147045619Y-107031667D01*
X147188476Y-107126905D01*
X147378952Y-107174524D01*
X147759905Y-107174524D01*
X147855143Y-107126905D01*
X147902762Y-107079286D01*
X147950381Y-106984048D01*
X147950381Y-106793571D01*
X147902762Y-106698333D01*
X147855143Y-106650714D01*
X147759905Y-106603095D01*
X147521810Y-106603095D01*
X147426571Y-106650714D01*
X147378952Y-106698333D01*
X147331333Y-106793571D01*
X147331333Y-106984048D01*
X147378952Y-107079286D01*
X147426571Y-107126905D01*
X147521810Y-107174524D01*
X147855143Y-72222143D02*
X147807524Y-72269762D01*
X147664667Y-72317381D01*
X147569429Y-72317381D01*
X147426571Y-72269762D01*
X147331333Y-72174524D01*
X147283714Y-72079286D01*
X147236095Y-71888810D01*
X147236095Y-71745952D01*
X147283714Y-71555476D01*
X147331333Y-71460238D01*
X147426571Y-71365000D01*
X147569429Y-71317381D01*
X147664667Y-71317381D01*
X147807524Y-71365000D01*
X147855143Y-71412619D01*
X148807524Y-72317381D02*
X148236095Y-72317381D01*
X148521809Y-72317381D02*
X148521809Y-71317381D01*
X148426571Y-71460238D01*
X148331333Y-71555476D01*
X148236095Y-71603095D01*
X149378952Y-71745952D02*
X149283714Y-71698333D01*
X149236095Y-71650714D01*
X149188476Y-71555476D01*
X149188476Y-71507857D01*
X149236095Y-71412619D01*
X149283714Y-71365000D01*
X149378952Y-71317381D01*
X149569429Y-71317381D01*
X149664667Y-71365000D01*
X149712286Y-71412619D01*
X149759905Y-71507857D01*
X149759905Y-71555476D01*
X149712286Y-71650714D01*
X149664667Y-71698333D01*
X149569429Y-71745952D01*
X149378952Y-71745952D01*
X149283714Y-71793571D01*
X149236095Y-71841190D01*
X149188476Y-71936429D01*
X149188476Y-72126905D01*
X149236095Y-72222143D01*
X149283714Y-72269762D01*
X149378952Y-72317381D01*
X149569429Y-72317381D01*
X149664667Y-72269762D01*
X149712286Y-72222143D01*
X149759905Y-72126905D01*
X149759905Y-71936429D01*
X149712286Y-71841190D01*
X149664667Y-71793571D01*
X149569429Y-71745952D01*
X173855143Y-90722143D02*
X173807524Y-90769762D01*
X173664667Y-90817381D01*
X173569429Y-90817381D01*
X173426571Y-90769762D01*
X173331333Y-90674524D01*
X173283714Y-90579286D01*
X173236095Y-90388810D01*
X173236095Y-90245952D01*
X173283714Y-90055476D01*
X173331333Y-89960238D01*
X173426571Y-89865000D01*
X173569429Y-89817381D01*
X173664667Y-89817381D01*
X173807524Y-89865000D01*
X173855143Y-89912619D01*
X174807524Y-90817381D02*
X174236095Y-90817381D01*
X174521809Y-90817381D02*
X174521809Y-89817381D01*
X174426571Y-89960238D01*
X174331333Y-90055476D01*
X174236095Y-90103095D01*
X175283714Y-90817381D02*
X175474190Y-90817381D01*
X175569429Y-90769762D01*
X175617048Y-90722143D01*
X175712286Y-90579286D01*
X175759905Y-90388810D01*
X175759905Y-90007857D01*
X175712286Y-89912619D01*
X175664667Y-89865000D01*
X175569429Y-89817381D01*
X175378952Y-89817381D01*
X175283714Y-89865000D01*
X175236095Y-89912619D01*
X175188476Y-90007857D01*
X175188476Y-90245952D01*
X175236095Y-90341190D01*
X175283714Y-90388810D01*
X175378952Y-90436429D01*
X175569429Y-90436429D01*
X175664667Y-90388810D01*
X175712286Y-90341190D01*
X175759905Y-90245952D01*
X162855143Y-106507857D02*
X162902762Y-106555476D01*
X162950381Y-106698333D01*
X162950381Y-106793571D01*
X162902762Y-106936429D01*
X162807524Y-107031667D01*
X162712286Y-107079286D01*
X162521810Y-107126905D01*
X162378952Y-107126905D01*
X162188476Y-107079286D01*
X162093238Y-107031667D01*
X161998000Y-106936429D01*
X161950381Y-106793571D01*
X161950381Y-106698333D01*
X161998000Y-106555476D01*
X162045619Y-106507857D01*
X162045619Y-106126905D02*
X161998000Y-106079286D01*
X161950381Y-105984048D01*
X161950381Y-105745952D01*
X161998000Y-105650714D01*
X162045619Y-105603095D01*
X162140857Y-105555476D01*
X162236095Y-105555476D01*
X162378952Y-105603095D01*
X162950381Y-106174524D01*
X162950381Y-105555476D01*
X161950381Y-104936429D02*
X161950381Y-104841190D01*
X161998000Y-104745952D01*
X162045619Y-104698333D01*
X162140857Y-104650714D01*
X162331333Y-104603095D01*
X162569429Y-104603095D01*
X162759905Y-104650714D01*
X162855143Y-104698333D01*
X162902762Y-104745952D01*
X162950381Y-104841190D01*
X162950381Y-104936429D01*
X162902762Y-105031667D01*
X162855143Y-105079286D01*
X162759905Y-105126905D01*
X162569429Y-105174524D01*
X162331333Y-105174524D01*
X162140857Y-105126905D01*
X162045619Y-105079286D01*
X161998000Y-105031667D01*
X161950381Y-104936429D01*
X162855143Y-108222143D02*
X162807524Y-108269762D01*
X162664667Y-108317381D01*
X162569429Y-108317381D01*
X162426571Y-108269762D01*
X162331333Y-108174524D01*
X162283714Y-108079286D01*
X162236095Y-107888810D01*
X162236095Y-107745952D01*
X162283714Y-107555476D01*
X162331333Y-107460238D01*
X162426571Y-107365000D01*
X162569429Y-107317381D01*
X162664667Y-107317381D01*
X162807524Y-107365000D01*
X162855143Y-107412619D01*
X163236095Y-107412619D02*
X163283714Y-107365000D01*
X163378952Y-107317381D01*
X163617048Y-107317381D01*
X163712286Y-107365000D01*
X163759905Y-107412619D01*
X163807524Y-107507857D01*
X163807524Y-107603095D01*
X163759905Y-107745952D01*
X163188476Y-108317381D01*
X163807524Y-108317381D01*
X164759905Y-108317381D02*
X164188476Y-108317381D01*
X164474190Y-108317381D02*
X164474190Y-107317381D01*
X164378952Y-107460238D01*
X164283714Y-107555476D01*
X164188476Y-107603095D01*
X172855143Y-108507857D02*
X172902762Y-108555476D01*
X172950381Y-108698333D01*
X172950381Y-108793571D01*
X172902762Y-108936429D01*
X172807524Y-109031667D01*
X172712286Y-109079286D01*
X172521810Y-109126905D01*
X172378952Y-109126905D01*
X172188476Y-109079286D01*
X172093238Y-109031667D01*
X171998000Y-108936429D01*
X171950381Y-108793571D01*
X171950381Y-108698333D01*
X171998000Y-108555476D01*
X172045619Y-108507857D01*
X172045619Y-108126905D02*
X171998000Y-108079286D01*
X171950381Y-107984048D01*
X171950381Y-107745952D01*
X171998000Y-107650714D01*
X172045619Y-107603095D01*
X172140857Y-107555476D01*
X172236095Y-107555476D01*
X172378952Y-107603095D01*
X172950381Y-108174524D01*
X172950381Y-107555476D01*
X172045619Y-107174524D02*
X171998000Y-107126905D01*
X171950381Y-107031667D01*
X171950381Y-106793571D01*
X171998000Y-106698333D01*
X172045619Y-106650714D01*
X172140857Y-106603095D01*
X172236095Y-106603095D01*
X172378952Y-106650714D01*
X172950381Y-107222143D01*
X172950381Y-106603095D01*
X170855143Y-108507857D02*
X170902762Y-108555476D01*
X170950381Y-108698333D01*
X170950381Y-108793571D01*
X170902762Y-108936429D01*
X170807524Y-109031667D01*
X170712286Y-109079286D01*
X170521810Y-109126905D01*
X170378952Y-109126905D01*
X170188476Y-109079286D01*
X170093238Y-109031667D01*
X169998000Y-108936429D01*
X169950381Y-108793571D01*
X169950381Y-108698333D01*
X169998000Y-108555476D01*
X170045619Y-108507857D01*
X170045619Y-108126905D02*
X169998000Y-108079286D01*
X169950381Y-107984048D01*
X169950381Y-107745952D01*
X169998000Y-107650714D01*
X170045619Y-107603095D01*
X170140857Y-107555476D01*
X170236095Y-107555476D01*
X170378952Y-107603095D01*
X170950381Y-108174524D01*
X170950381Y-107555476D01*
X169950381Y-107222143D02*
X169950381Y-106603095D01*
X170331333Y-106936429D01*
X170331333Y-106793571D01*
X170378952Y-106698333D01*
X170426571Y-106650714D01*
X170521810Y-106603095D01*
X170759905Y-106603095D01*
X170855143Y-106650714D01*
X170902762Y-106698333D01*
X170950381Y-106793571D01*
X170950381Y-107079286D01*
X170902762Y-107174524D01*
X170855143Y-107222143D01*
X178902762Y-88412619D02*
X178807524Y-88365000D01*
X178712286Y-88269762D01*
X178569429Y-88126905D01*
X178474190Y-88079286D01*
X178378952Y-88079286D01*
X178426571Y-88317381D02*
X178331333Y-88269762D01*
X178236095Y-88174524D01*
X178188476Y-87984048D01*
X178188476Y-87650714D01*
X178236095Y-87460238D01*
X178331333Y-87365000D01*
X178426571Y-87317381D01*
X178617048Y-87317381D01*
X178712286Y-87365000D01*
X178807524Y-87460238D01*
X178855143Y-87650714D01*
X178855143Y-87984048D01*
X178807524Y-88174524D01*
X178712286Y-88269762D01*
X178617048Y-88317381D01*
X178426571Y-88317381D01*
X179807524Y-88317381D02*
X179236095Y-88317381D01*
X179521809Y-88317381D02*
X179521809Y-87317381D01*
X179426571Y-87460238D01*
X179331333Y-87555476D01*
X179236095Y-87603095D01*
X123744381Y-94487666D02*
X123268190Y-94821000D01*
X123744381Y-95059095D02*
X122744381Y-95059095D01*
X122744381Y-94678142D01*
X122792000Y-94582904D01*
X122839619Y-94535285D01*
X122934857Y-94487666D01*
X123077714Y-94487666D01*
X123172952Y-94535285D01*
X123220571Y-94582904D01*
X123268190Y-94678142D01*
X123268190Y-95059095D01*
X123744381Y-93535285D02*
X123744381Y-94106714D01*
X123744381Y-93821000D02*
X122744381Y-93821000D01*
X122887238Y-93916238D01*
X122982476Y-94011476D01*
X123030095Y-94106714D01*
X125268381Y-94487666D02*
X124792190Y-94821000D01*
X125268381Y-95059095D02*
X124268381Y-95059095D01*
X124268381Y-94678142D01*
X124316000Y-94582904D01*
X124363619Y-94535285D01*
X124458857Y-94487666D01*
X124601714Y-94487666D01*
X124696952Y-94535285D01*
X124744571Y-94582904D01*
X124792190Y-94678142D01*
X124792190Y-95059095D01*
X124363619Y-94106714D02*
X124316000Y-94059095D01*
X124268381Y-93963857D01*
X124268381Y-93725761D01*
X124316000Y-93630523D01*
X124363619Y-93582904D01*
X124458857Y-93535285D01*
X124554095Y-93535285D01*
X124696952Y-93582904D01*
X125268381Y-94154333D01*
X125268381Y-93535285D01*
X115616381Y-101091666D02*
X115140190Y-101425000D01*
X115616381Y-101663095D02*
X114616381Y-101663095D01*
X114616381Y-101282142D01*
X114664000Y-101186904D01*
X114711619Y-101139285D01*
X114806857Y-101091666D01*
X114949714Y-101091666D01*
X115044952Y-101139285D01*
X115092571Y-101186904D01*
X115140190Y-101282142D01*
X115140190Y-101663095D01*
X114616381Y-100758333D02*
X114616381Y-100139285D01*
X114997333Y-100472619D01*
X114997333Y-100329761D01*
X115044952Y-100234523D01*
X115092571Y-100186904D01*
X115187810Y-100139285D01*
X115425905Y-100139285D01*
X115521143Y-100186904D01*
X115568762Y-100234523D01*
X115616381Y-100329761D01*
X115616381Y-100615476D01*
X115568762Y-100710714D01*
X115521143Y-100758333D01*
X114600381Y-94487666D02*
X114124190Y-94821000D01*
X114600381Y-95059095D02*
X113600381Y-95059095D01*
X113600381Y-94678142D01*
X113648000Y-94582904D01*
X113695619Y-94535285D01*
X113790857Y-94487666D01*
X113933714Y-94487666D01*
X114028952Y-94535285D01*
X114076571Y-94582904D01*
X114124190Y-94678142D01*
X114124190Y-95059095D01*
X113933714Y-93630523D02*
X114600381Y-93630523D01*
X113552762Y-93868619D02*
X114267048Y-94106714D01*
X114267048Y-93487666D01*
X116124381Y-94487666D02*
X115648190Y-94821000D01*
X116124381Y-95059095D02*
X115124381Y-95059095D01*
X115124381Y-94678142D01*
X115172000Y-94582904D01*
X115219619Y-94535285D01*
X115314857Y-94487666D01*
X115457714Y-94487666D01*
X115552952Y-94535285D01*
X115600571Y-94582904D01*
X115648190Y-94678142D01*
X115648190Y-95059095D01*
X115124381Y-93582904D02*
X115124381Y-94059095D01*
X115600571Y-94106714D01*
X115552952Y-94059095D01*
X115505333Y-93963857D01*
X115505333Y-93725761D01*
X115552952Y-93630523D01*
X115600571Y-93582904D01*
X115695810Y-93535285D01*
X115933905Y-93535285D01*
X116029143Y-93582904D01*
X116076762Y-93630523D01*
X116124381Y-93725761D01*
X116124381Y-93963857D01*
X116076762Y-94059095D01*
X116029143Y-94106714D01*
X114092381Y-101091666D02*
X113616190Y-101425000D01*
X114092381Y-101663095D02*
X113092381Y-101663095D01*
X113092381Y-101282142D01*
X113140000Y-101186904D01*
X113187619Y-101139285D01*
X113282857Y-101091666D01*
X113425714Y-101091666D01*
X113520952Y-101139285D01*
X113568571Y-101186904D01*
X113616190Y-101282142D01*
X113616190Y-101663095D01*
X113092381Y-100234523D02*
X113092381Y-100425000D01*
X113140000Y-100520238D01*
X113187619Y-100567857D01*
X113330476Y-100663095D01*
X113520952Y-100710714D01*
X113901905Y-100710714D01*
X113997143Y-100663095D01*
X114044762Y-100615476D01*
X114092381Y-100520238D01*
X114092381Y-100329761D01*
X114044762Y-100234523D01*
X113997143Y-100186904D01*
X113901905Y-100139285D01*
X113663810Y-100139285D01*
X113568571Y-100186904D01*
X113520952Y-100234523D01*
X113473333Y-100329761D01*
X113473333Y-100520238D01*
X113520952Y-100615476D01*
X113568571Y-100663095D01*
X113663810Y-100710714D01*
X117648381Y-94487666D02*
X117172190Y-94821000D01*
X117648381Y-95059095D02*
X116648381Y-95059095D01*
X116648381Y-94678142D01*
X116696000Y-94582904D01*
X116743619Y-94535285D01*
X116838857Y-94487666D01*
X116981714Y-94487666D01*
X117076952Y-94535285D01*
X117124571Y-94582904D01*
X117172190Y-94678142D01*
X117172190Y-95059095D01*
X117648381Y-94011476D02*
X117648381Y-93821000D01*
X117600762Y-93725761D01*
X117553143Y-93678142D01*
X117410286Y-93582904D01*
X117219810Y-93535285D01*
X116838857Y-93535285D01*
X116743619Y-93582904D01*
X116696000Y-93630523D01*
X116648381Y-93725761D01*
X116648381Y-93916238D01*
X116696000Y-94011476D01*
X116743619Y-94059095D01*
X116838857Y-94106714D01*
X117076952Y-94106714D01*
X117172190Y-94059095D01*
X117219810Y-94011476D01*
X117267429Y-93916238D01*
X117267429Y-93725761D01*
X117219810Y-93630523D01*
X117172190Y-93582904D01*
X117076952Y-93535285D01*
X128316381Y-94963857D02*
X127840190Y-95297191D01*
X128316381Y-95535286D02*
X127316381Y-95535286D01*
X127316381Y-95154333D01*
X127364000Y-95059095D01*
X127411619Y-95011476D01*
X127506857Y-94963857D01*
X127649714Y-94963857D01*
X127744952Y-95011476D01*
X127792571Y-95059095D01*
X127840190Y-95154333D01*
X127840190Y-95535286D01*
X128316381Y-94011476D02*
X128316381Y-94582905D01*
X128316381Y-94297191D02*
X127316381Y-94297191D01*
X127459238Y-94392429D01*
X127554476Y-94487667D01*
X127602095Y-94582905D01*
X127316381Y-93392429D02*
X127316381Y-93297190D01*
X127364000Y-93201952D01*
X127411619Y-93154333D01*
X127506857Y-93106714D01*
X127697333Y-93059095D01*
X127935429Y-93059095D01*
X128125905Y-93106714D01*
X128221143Y-93154333D01*
X128268762Y-93201952D01*
X128316381Y-93297190D01*
X128316381Y-93392429D01*
X128268762Y-93487667D01*
X128221143Y-93535286D01*
X128125905Y-93582905D01*
X127935429Y-93630524D01*
X127697333Y-93630524D01*
X127506857Y-93582905D01*
X127411619Y-93535286D01*
X127364000Y-93487667D01*
X127316381Y-93392429D01*
X126940381Y-94963857D02*
X126464190Y-95297191D01*
X126940381Y-95535286D02*
X125940381Y-95535286D01*
X125940381Y-95154333D01*
X125988000Y-95059095D01*
X126035619Y-95011476D01*
X126130857Y-94963857D01*
X126273714Y-94963857D01*
X126368952Y-95011476D01*
X126416571Y-95059095D01*
X126464190Y-95154333D01*
X126464190Y-95535286D01*
X126940381Y-94011476D02*
X126940381Y-94582905D01*
X126940381Y-94297191D02*
X125940381Y-94297191D01*
X126083238Y-94392429D01*
X126178476Y-94487667D01*
X126226095Y-94582905D01*
X126940381Y-93059095D02*
X126940381Y-93630524D01*
X126940381Y-93344810D02*
X125940381Y-93344810D01*
X126083238Y-93440048D01*
X126178476Y-93535286D01*
X126226095Y-93630524D01*
X129988381Y-103599857D02*
X129512190Y-103933191D01*
X129988381Y-104171286D02*
X128988381Y-104171286D01*
X128988381Y-103790333D01*
X129036000Y-103695095D01*
X129083619Y-103647476D01*
X129178857Y-103599857D01*
X129321714Y-103599857D01*
X129416952Y-103647476D01*
X129464571Y-103695095D01*
X129512190Y-103790333D01*
X129512190Y-104171286D01*
X129988381Y-102647476D02*
X129988381Y-103218905D01*
X129988381Y-102933191D02*
X128988381Y-102933191D01*
X129131238Y-103028429D01*
X129226476Y-103123667D01*
X129274095Y-103218905D01*
X129083619Y-102266524D02*
X129036000Y-102218905D01*
X128988381Y-102123667D01*
X128988381Y-101885571D01*
X129036000Y-101790333D01*
X129083619Y-101742714D01*
X129178857Y-101695095D01*
X129274095Y-101695095D01*
X129416952Y-101742714D01*
X129988381Y-102314143D01*
X129988381Y-101695095D01*
X147900381Y-95007857D02*
X147424190Y-95341191D01*
X147900381Y-95579286D02*
X146900381Y-95579286D01*
X146900381Y-95198333D01*
X146948000Y-95103095D01*
X146995619Y-95055476D01*
X147090857Y-95007857D01*
X147233714Y-95007857D01*
X147328952Y-95055476D01*
X147376571Y-95103095D01*
X147424190Y-95198333D01*
X147424190Y-95579286D01*
X147900381Y-94055476D02*
X147900381Y-94626905D01*
X147900381Y-94341191D02*
X146900381Y-94341191D01*
X147043238Y-94436429D01*
X147138476Y-94531667D01*
X147186095Y-94626905D01*
X147900381Y-93579286D02*
X147900381Y-93388810D01*
X147852762Y-93293571D01*
X147805143Y-93245952D01*
X147662286Y-93150714D01*
X147471810Y-93103095D01*
X147090857Y-93103095D01*
X146995619Y-93150714D01*
X146948000Y-93198333D01*
X146900381Y-93293571D01*
X146900381Y-93484048D01*
X146948000Y-93579286D01*
X146995619Y-93626905D01*
X147090857Y-93674524D01*
X147328952Y-93674524D01*
X147424190Y-93626905D01*
X147471810Y-93579286D01*
X147519429Y-93484048D01*
X147519429Y-93293571D01*
X147471810Y-93198333D01*
X147424190Y-93150714D01*
X147328952Y-93103095D01*
X149400381Y-95007857D02*
X148924190Y-95341191D01*
X149400381Y-95579286D02*
X148400381Y-95579286D01*
X148400381Y-95198333D01*
X148448000Y-95103095D01*
X148495619Y-95055476D01*
X148590857Y-95007857D01*
X148733714Y-95007857D01*
X148828952Y-95055476D01*
X148876571Y-95103095D01*
X148924190Y-95198333D01*
X148924190Y-95579286D01*
X148495619Y-94626905D02*
X148448000Y-94579286D01*
X148400381Y-94484048D01*
X148400381Y-94245952D01*
X148448000Y-94150714D01*
X148495619Y-94103095D01*
X148590857Y-94055476D01*
X148686095Y-94055476D01*
X148828952Y-94103095D01*
X149400381Y-94674524D01*
X149400381Y-94055476D01*
X148400381Y-93436429D02*
X148400381Y-93341190D01*
X148448000Y-93245952D01*
X148495619Y-93198333D01*
X148590857Y-93150714D01*
X148781333Y-93103095D01*
X149019429Y-93103095D01*
X149209905Y-93150714D01*
X149305143Y-93198333D01*
X149352762Y-93245952D01*
X149400381Y-93341190D01*
X149400381Y-93436429D01*
X149352762Y-93531667D01*
X149305143Y-93579286D01*
X149209905Y-93626905D01*
X149019429Y-93674524D01*
X148781333Y-93674524D01*
X148590857Y-93626905D01*
X148495619Y-93579286D01*
X148448000Y-93531667D01*
X148400381Y-93436429D01*
X150900381Y-95007857D02*
X150424190Y-95341191D01*
X150900381Y-95579286D02*
X149900381Y-95579286D01*
X149900381Y-95198333D01*
X149948000Y-95103095D01*
X149995619Y-95055476D01*
X150090857Y-95007857D01*
X150233714Y-95007857D01*
X150328952Y-95055476D01*
X150376571Y-95103095D01*
X150424190Y-95198333D01*
X150424190Y-95579286D01*
X149995619Y-94626905D02*
X149948000Y-94579286D01*
X149900381Y-94484048D01*
X149900381Y-94245952D01*
X149948000Y-94150714D01*
X149995619Y-94103095D01*
X150090857Y-94055476D01*
X150186095Y-94055476D01*
X150328952Y-94103095D01*
X150900381Y-94674524D01*
X150900381Y-94055476D01*
X149900381Y-93150714D02*
X149900381Y-93626905D01*
X150376571Y-93674524D01*
X150328952Y-93626905D01*
X150281333Y-93531667D01*
X150281333Y-93293571D01*
X150328952Y-93198333D01*
X150376571Y-93150714D01*
X150471810Y-93103095D01*
X150709905Y-93103095D01*
X150805143Y-93150714D01*
X150852762Y-93198333D01*
X150900381Y-93293571D01*
X150900381Y-93531667D01*
X150852762Y-93626905D01*
X150805143Y-93674524D01*
X143400381Y-95007857D02*
X142924190Y-95341191D01*
X143400381Y-95579286D02*
X142400381Y-95579286D01*
X142400381Y-95198333D01*
X142448000Y-95103095D01*
X142495619Y-95055476D01*
X142590857Y-95007857D01*
X142733714Y-95007857D01*
X142828952Y-95055476D01*
X142876571Y-95103095D01*
X142924190Y-95198333D01*
X142924190Y-95579286D01*
X142495619Y-94626905D02*
X142448000Y-94579286D01*
X142400381Y-94484048D01*
X142400381Y-94245952D01*
X142448000Y-94150714D01*
X142495619Y-94103095D01*
X142590857Y-94055476D01*
X142686095Y-94055476D01*
X142828952Y-94103095D01*
X143400381Y-94674524D01*
X143400381Y-94055476D01*
X142400381Y-93198333D02*
X142400381Y-93388810D01*
X142448000Y-93484048D01*
X142495619Y-93531667D01*
X142638476Y-93626905D01*
X142828952Y-93674524D01*
X143209905Y-93674524D01*
X143305143Y-93626905D01*
X143352762Y-93579286D01*
X143400381Y-93484048D01*
X143400381Y-93293571D01*
X143352762Y-93198333D01*
X143305143Y-93150714D01*
X143209905Y-93103095D01*
X142971810Y-93103095D01*
X142876571Y-93150714D01*
X142828952Y-93198333D01*
X142781333Y-93293571D01*
X142781333Y-93484048D01*
X142828952Y-93579286D01*
X142876571Y-93626905D01*
X142971810Y-93674524D01*
X141900381Y-95007857D02*
X141424190Y-95341191D01*
X141900381Y-95579286D02*
X140900381Y-95579286D01*
X140900381Y-95198333D01*
X140948000Y-95103095D01*
X140995619Y-95055476D01*
X141090857Y-95007857D01*
X141233714Y-95007857D01*
X141328952Y-95055476D01*
X141376571Y-95103095D01*
X141424190Y-95198333D01*
X141424190Y-95579286D01*
X140995619Y-94626905D02*
X140948000Y-94579286D01*
X140900381Y-94484048D01*
X140900381Y-94245952D01*
X140948000Y-94150714D01*
X140995619Y-94103095D01*
X141090857Y-94055476D01*
X141186095Y-94055476D01*
X141328952Y-94103095D01*
X141900381Y-94674524D01*
X141900381Y-94055476D01*
X140900381Y-93722143D02*
X140900381Y-93055476D01*
X141900381Y-93484048D01*
X152400381Y-95007857D02*
X151924190Y-95341191D01*
X152400381Y-95579286D02*
X151400381Y-95579286D01*
X151400381Y-95198333D01*
X151448000Y-95103095D01*
X151495619Y-95055476D01*
X151590857Y-95007857D01*
X151733714Y-95007857D01*
X151828952Y-95055476D01*
X151876571Y-95103095D01*
X151924190Y-95198333D01*
X151924190Y-95579286D01*
X151495619Y-94626905D02*
X151448000Y-94579286D01*
X151400381Y-94484048D01*
X151400381Y-94245952D01*
X151448000Y-94150714D01*
X151495619Y-94103095D01*
X151590857Y-94055476D01*
X151686095Y-94055476D01*
X151828952Y-94103095D01*
X152400381Y-94674524D01*
X152400381Y-94055476D01*
X151828952Y-93484048D02*
X151781333Y-93579286D01*
X151733714Y-93626905D01*
X151638476Y-93674524D01*
X151590857Y-93674524D01*
X151495619Y-93626905D01*
X151448000Y-93579286D01*
X151400381Y-93484048D01*
X151400381Y-93293571D01*
X151448000Y-93198333D01*
X151495619Y-93150714D01*
X151590857Y-93103095D01*
X151638476Y-93103095D01*
X151733714Y-93150714D01*
X151781333Y-93198333D01*
X151828952Y-93293571D01*
X151828952Y-93484048D01*
X151876571Y-93579286D01*
X151924190Y-93626905D01*
X152019429Y-93674524D01*
X152209905Y-93674524D01*
X152305143Y-93626905D01*
X152352762Y-93579286D01*
X152400381Y-93484048D01*
X152400381Y-93293571D01*
X152352762Y-93198333D01*
X152305143Y-93150714D01*
X152209905Y-93103095D01*
X152019429Y-93103095D01*
X151924190Y-93150714D01*
X151876571Y-93198333D01*
X151828952Y-93293571D01*
X155500381Y-103507857D02*
X155024190Y-103841191D01*
X155500381Y-104079286D02*
X154500381Y-104079286D01*
X154500381Y-103698333D01*
X154548000Y-103603095D01*
X154595619Y-103555476D01*
X154690857Y-103507857D01*
X154833714Y-103507857D01*
X154928952Y-103555476D01*
X154976571Y-103603095D01*
X155024190Y-103698333D01*
X155024190Y-104079286D01*
X154500381Y-103174524D02*
X154500381Y-102555476D01*
X154881333Y-102888810D01*
X154881333Y-102745952D01*
X154928952Y-102650714D01*
X154976571Y-102603095D01*
X155071810Y-102555476D01*
X155309905Y-102555476D01*
X155405143Y-102603095D01*
X155452762Y-102650714D01*
X155500381Y-102745952D01*
X155500381Y-103031667D01*
X155452762Y-103126905D01*
X155405143Y-103174524D01*
X155500381Y-101603095D02*
X155500381Y-102174524D01*
X155500381Y-101888810D02*
X154500381Y-101888810D01*
X154643238Y-101984048D01*
X154738476Y-102079286D01*
X154786095Y-102174524D01*
X156555143Y-104067381D02*
X156221809Y-103591190D01*
X155983714Y-104067381D02*
X155983714Y-103067381D01*
X156364667Y-103067381D01*
X156459905Y-103115000D01*
X156507524Y-103162619D01*
X156555143Y-103257857D01*
X156555143Y-103400714D01*
X156507524Y-103495952D01*
X156459905Y-103543571D01*
X156364667Y-103591190D01*
X155983714Y-103591190D01*
X156888476Y-103067381D02*
X157507524Y-103067381D01*
X157174190Y-103448333D01*
X157317048Y-103448333D01*
X157412286Y-103495952D01*
X157459905Y-103543571D01*
X157507524Y-103638810D01*
X157507524Y-103876905D01*
X157459905Y-103972143D01*
X157412286Y-104019762D01*
X157317048Y-104067381D01*
X157031333Y-104067381D01*
X156936095Y-104019762D01*
X156888476Y-103972143D01*
X157888476Y-103162619D02*
X157936095Y-103115000D01*
X158031333Y-103067381D01*
X158269429Y-103067381D01*
X158364667Y-103115000D01*
X158412286Y-103162619D01*
X158459905Y-103257857D01*
X158459905Y-103353095D01*
X158412286Y-103495952D01*
X157840857Y-104067381D01*
X158459905Y-104067381D01*
X170900381Y-95007857D02*
X170424190Y-95341191D01*
X170900381Y-95579286D02*
X169900381Y-95579286D01*
X169900381Y-95198333D01*
X169948000Y-95103095D01*
X169995619Y-95055476D01*
X170090857Y-95007857D01*
X170233714Y-95007857D01*
X170328952Y-95055476D01*
X170376571Y-95103095D01*
X170424190Y-95198333D01*
X170424190Y-95579286D01*
X169900381Y-94674524D02*
X169900381Y-94055476D01*
X170281333Y-94388810D01*
X170281333Y-94245952D01*
X170328952Y-94150714D01*
X170376571Y-94103095D01*
X170471810Y-94055476D01*
X170709905Y-94055476D01*
X170805143Y-94103095D01*
X170852762Y-94150714D01*
X170900381Y-94245952D01*
X170900381Y-94531667D01*
X170852762Y-94626905D01*
X170805143Y-94674524D01*
X169900381Y-93722143D02*
X169900381Y-93055476D01*
X170900381Y-93484048D01*
X162900381Y-101507857D02*
X162424190Y-101841191D01*
X162900381Y-102079286D02*
X161900381Y-102079286D01*
X161900381Y-101698333D01*
X161948000Y-101603095D01*
X161995619Y-101555476D01*
X162090857Y-101507857D01*
X162233714Y-101507857D01*
X162328952Y-101555476D01*
X162376571Y-101603095D01*
X162424190Y-101698333D01*
X162424190Y-102079286D01*
X161900381Y-101174524D02*
X161900381Y-100555476D01*
X162281333Y-100888810D01*
X162281333Y-100745952D01*
X162328952Y-100650714D01*
X162376571Y-100603095D01*
X162471810Y-100555476D01*
X162709905Y-100555476D01*
X162805143Y-100603095D01*
X162852762Y-100650714D01*
X162900381Y-100745952D01*
X162900381Y-101031667D01*
X162852762Y-101126905D01*
X162805143Y-101174524D01*
X162900381Y-100079286D02*
X162900381Y-99888810D01*
X162852762Y-99793571D01*
X162805143Y-99745952D01*
X162662286Y-99650714D01*
X162471810Y-99603095D01*
X162090857Y-99603095D01*
X161995619Y-99650714D01*
X161948000Y-99698333D01*
X161900381Y-99793571D01*
X161900381Y-99984048D01*
X161948000Y-100079286D01*
X161995619Y-100126905D01*
X162090857Y-100174524D01*
X162328952Y-100174524D01*
X162424190Y-100126905D01*
X162471810Y-100079286D01*
X162519429Y-99984048D01*
X162519429Y-99793571D01*
X162471810Y-99698333D01*
X162424190Y-99650714D01*
X162328952Y-99603095D01*
X163400381Y-95007857D02*
X162924190Y-95341191D01*
X163400381Y-95579286D02*
X162400381Y-95579286D01*
X162400381Y-95198333D01*
X162448000Y-95103095D01*
X162495619Y-95055476D01*
X162590857Y-95007857D01*
X162733714Y-95007857D01*
X162828952Y-95055476D01*
X162876571Y-95103095D01*
X162924190Y-95198333D01*
X162924190Y-95579286D01*
X162733714Y-94150714D02*
X163400381Y-94150714D01*
X162352762Y-94388810D02*
X163067048Y-94626905D01*
X163067048Y-94007857D01*
X163400381Y-93103095D02*
X163400381Y-93674524D01*
X163400381Y-93388810D02*
X162400381Y-93388810D01*
X162543238Y-93484048D01*
X162638476Y-93579286D01*
X162686095Y-93674524D01*
X161400381Y-101507857D02*
X160924190Y-101841191D01*
X161400381Y-102079286D02*
X160400381Y-102079286D01*
X160400381Y-101698333D01*
X160448000Y-101603095D01*
X160495619Y-101555476D01*
X160590857Y-101507857D01*
X160733714Y-101507857D01*
X160828952Y-101555476D01*
X160876571Y-101603095D01*
X160924190Y-101698333D01*
X160924190Y-102079286D01*
X160733714Y-100650714D02*
X161400381Y-100650714D01*
X160352762Y-100888810D02*
X161067048Y-101126905D01*
X161067048Y-100507857D01*
X160495619Y-100174524D02*
X160448000Y-100126905D01*
X160400381Y-100031667D01*
X160400381Y-99793571D01*
X160448000Y-99698333D01*
X160495619Y-99650714D01*
X160590857Y-99603095D01*
X160686095Y-99603095D01*
X160828952Y-99650714D01*
X161400381Y-100222143D01*
X161400381Y-99603095D01*
X164900381Y-95007857D02*
X164424190Y-95341191D01*
X164900381Y-95579286D02*
X163900381Y-95579286D01*
X163900381Y-95198333D01*
X163948000Y-95103095D01*
X163995619Y-95055476D01*
X164090857Y-95007857D01*
X164233714Y-95007857D01*
X164328952Y-95055476D01*
X164376571Y-95103095D01*
X164424190Y-95198333D01*
X164424190Y-95579286D01*
X164233714Y-94150714D02*
X164900381Y-94150714D01*
X163852762Y-94388810D02*
X164567048Y-94626905D01*
X164567048Y-94007857D01*
X163900381Y-93150714D02*
X163900381Y-93626905D01*
X164376571Y-93674524D01*
X164328952Y-93626905D01*
X164281333Y-93531667D01*
X164281333Y-93293571D01*
X164328952Y-93198333D01*
X164376571Y-93150714D01*
X164471810Y-93103095D01*
X164709905Y-93103095D01*
X164805143Y-93150714D01*
X164852762Y-93198333D01*
X164900381Y-93293571D01*
X164900381Y-93531667D01*
X164852762Y-93626905D01*
X164805143Y-93674524D01*
X175400381Y-95007857D02*
X174924190Y-95341191D01*
X175400381Y-95579286D02*
X174400381Y-95579286D01*
X174400381Y-95198333D01*
X174448000Y-95103095D01*
X174495619Y-95055476D01*
X174590857Y-95007857D01*
X174733714Y-95007857D01*
X174828952Y-95055476D01*
X174876571Y-95103095D01*
X174924190Y-95198333D01*
X174924190Y-95579286D01*
X174733714Y-94150714D02*
X175400381Y-94150714D01*
X174352762Y-94388810D02*
X175067048Y-94626905D01*
X175067048Y-94007857D01*
X174400381Y-93198333D02*
X174400381Y-93388810D01*
X174448000Y-93484048D01*
X174495619Y-93531667D01*
X174638476Y-93626905D01*
X174828952Y-93674524D01*
X175209905Y-93674524D01*
X175305143Y-93626905D01*
X175352762Y-93579286D01*
X175400381Y-93484048D01*
X175400381Y-93293571D01*
X175352762Y-93198333D01*
X175305143Y-93150714D01*
X175209905Y-93103095D01*
X174971810Y-93103095D01*
X174876571Y-93150714D01*
X174828952Y-93198333D01*
X174781333Y-93293571D01*
X174781333Y-93484048D01*
X174828952Y-93579286D01*
X174876571Y-93626905D01*
X174971810Y-93674524D01*
X178150381Y-89257857D02*
X177674190Y-89591191D01*
X178150381Y-89829286D02*
X177150381Y-89829286D01*
X177150381Y-89448333D01*
X177198000Y-89353095D01*
X177245619Y-89305476D01*
X177340857Y-89257857D01*
X177483714Y-89257857D01*
X177578952Y-89305476D01*
X177626571Y-89353095D01*
X177674190Y-89448333D01*
X177674190Y-89829286D01*
X177483714Y-88400714D02*
X178150381Y-88400714D01*
X177102762Y-88638810D02*
X177817048Y-88876905D01*
X177817048Y-88257857D01*
X177150381Y-87972143D02*
X177150381Y-87305476D01*
X178150381Y-87734048D01*
X174000381Y-95007857D02*
X173524190Y-95341191D01*
X174000381Y-95579286D02*
X173000381Y-95579286D01*
X173000381Y-95198333D01*
X173048000Y-95103095D01*
X173095619Y-95055476D01*
X173190857Y-95007857D01*
X173333714Y-95007857D01*
X173428952Y-95055476D01*
X173476571Y-95103095D01*
X173524190Y-95198333D01*
X173524190Y-95579286D01*
X173333714Y-94150714D02*
X174000381Y-94150714D01*
X172952762Y-94388810D02*
X173667048Y-94626905D01*
X173667048Y-94007857D01*
X173428952Y-93484048D02*
X173381333Y-93579286D01*
X173333714Y-93626905D01*
X173238476Y-93674524D01*
X173190857Y-93674524D01*
X173095619Y-93626905D01*
X173048000Y-93579286D01*
X173000381Y-93484048D01*
X173000381Y-93293571D01*
X173048000Y-93198333D01*
X173095619Y-93150714D01*
X173190857Y-93103095D01*
X173238476Y-93103095D01*
X173333714Y-93150714D01*
X173381333Y-93198333D01*
X173428952Y-93293571D01*
X173428952Y-93484048D01*
X173476571Y-93579286D01*
X173524190Y-93626905D01*
X173619429Y-93674524D01*
X173809905Y-93674524D01*
X173905143Y-93626905D01*
X173952762Y-93579286D01*
X174000381Y-93484048D01*
X174000381Y-93293571D01*
X173952762Y-93198333D01*
X173905143Y-93150714D01*
X173809905Y-93103095D01*
X173619429Y-93103095D01*
X173524190Y-93150714D01*
X173476571Y-93198333D01*
X173428952Y-93293571D01*
X181900381Y-87507857D02*
X181424190Y-87841191D01*
X181900381Y-88079286D02*
X180900381Y-88079286D01*
X180900381Y-87698333D01*
X180948000Y-87603095D01*
X180995619Y-87555476D01*
X181090857Y-87507857D01*
X181233714Y-87507857D01*
X181328952Y-87555476D01*
X181376571Y-87603095D01*
X181424190Y-87698333D01*
X181424190Y-88079286D01*
X181233714Y-86650714D02*
X181900381Y-86650714D01*
X180852762Y-86888810D02*
X181567048Y-87126905D01*
X181567048Y-86507857D01*
X181900381Y-86079286D02*
X181900381Y-85888810D01*
X181852762Y-85793571D01*
X181805143Y-85745952D01*
X181662286Y-85650714D01*
X181471810Y-85603095D01*
X181090857Y-85603095D01*
X180995619Y-85650714D01*
X180948000Y-85698333D01*
X180900381Y-85793571D01*
X180900381Y-85984048D01*
X180948000Y-86079286D01*
X180995619Y-86126905D01*
X181090857Y-86174524D01*
X181328952Y-86174524D01*
X181424190Y-86126905D01*
X181471810Y-86079286D01*
X181519429Y-85984048D01*
X181519429Y-85793571D01*
X181471810Y-85698333D01*
X181424190Y-85650714D01*
X181328952Y-85603095D01*
X180150381Y-87507857D02*
X179674190Y-87841191D01*
X180150381Y-88079286D02*
X179150381Y-88079286D01*
X179150381Y-87698333D01*
X179198000Y-87603095D01*
X179245619Y-87555476D01*
X179340857Y-87507857D01*
X179483714Y-87507857D01*
X179578952Y-87555476D01*
X179626571Y-87603095D01*
X179674190Y-87698333D01*
X179674190Y-88079286D01*
X179150381Y-86603095D02*
X179150381Y-87079286D01*
X179626571Y-87126905D01*
X179578952Y-87079286D01*
X179531333Y-86984048D01*
X179531333Y-86745952D01*
X179578952Y-86650714D01*
X179626571Y-86603095D01*
X179721810Y-86555476D01*
X179959905Y-86555476D01*
X180055143Y-86603095D01*
X180102762Y-86650714D01*
X180150381Y-86745952D01*
X180150381Y-86984048D01*
X180102762Y-87079286D01*
X180055143Y-87126905D01*
X179150381Y-85936429D02*
X179150381Y-85841190D01*
X179198000Y-85745952D01*
X179245619Y-85698333D01*
X179340857Y-85650714D01*
X179531333Y-85603095D01*
X179769429Y-85603095D01*
X179959905Y-85650714D01*
X180055143Y-85698333D01*
X180102762Y-85745952D01*
X180150381Y-85841190D01*
X180150381Y-85936429D01*
X180102762Y-86031667D01*
X180055143Y-86079286D01*
X179959905Y-86126905D01*
X179769429Y-86174524D01*
X179531333Y-86174524D01*
X179340857Y-86126905D01*
X179245619Y-86079286D01*
X179198000Y-86031667D01*
X179150381Y-85936429D01*
X181400381Y-106507857D02*
X180924190Y-106841191D01*
X181400381Y-107079286D02*
X180400381Y-107079286D01*
X180400381Y-106698333D01*
X180448000Y-106603095D01*
X180495619Y-106555476D01*
X180590857Y-106507857D01*
X180733714Y-106507857D01*
X180828952Y-106555476D01*
X180876571Y-106603095D01*
X180924190Y-106698333D01*
X180924190Y-107079286D01*
X180400381Y-105603095D02*
X180400381Y-106079286D01*
X180876571Y-106126905D01*
X180828952Y-106079286D01*
X180781333Y-105984048D01*
X180781333Y-105745952D01*
X180828952Y-105650714D01*
X180876571Y-105603095D01*
X180971810Y-105555476D01*
X181209905Y-105555476D01*
X181305143Y-105603095D01*
X181352762Y-105650714D01*
X181400381Y-105745952D01*
X181400381Y-105984048D01*
X181352762Y-106079286D01*
X181305143Y-106126905D01*
X180400381Y-105222143D02*
X180400381Y-104603095D01*
X180781333Y-104936429D01*
X180781333Y-104793571D01*
X180828952Y-104698333D01*
X180876571Y-104650714D01*
X180971810Y-104603095D01*
X181209905Y-104603095D01*
X181305143Y-104650714D01*
X181352762Y-104698333D01*
X181400381Y-104793571D01*
X181400381Y-105079286D01*
X181352762Y-105174524D01*
X181305143Y-105222143D01*
X126792381Y-94487666D02*
X126316190Y-94821000D01*
X126792381Y-95059095D02*
X125792381Y-95059095D01*
X125792381Y-94678142D01*
X125840000Y-94582904D01*
X125887619Y-94535285D01*
X125982857Y-94487666D01*
X126125714Y-94487666D01*
X126220952Y-94535285D01*
X126268571Y-94582904D01*
X126316190Y-94678142D01*
X126316190Y-95059095D01*
X125792381Y-94154333D02*
X125792381Y-93487666D01*
X126792381Y-93916238D01*
X119172381Y-94487666D02*
X118696190Y-94821000D01*
X119172381Y-95059095D02*
X118172381Y-95059095D01*
X118172381Y-94678142D01*
X118220000Y-94582904D01*
X118267619Y-94535285D01*
X118362857Y-94487666D01*
X118505714Y-94487666D01*
X118600952Y-94535285D01*
X118648571Y-94582904D01*
X118696190Y-94678142D01*
X118696190Y-95059095D01*
X118600952Y-93916238D02*
X118553333Y-94011476D01*
X118505714Y-94059095D01*
X118410476Y-94106714D01*
X118362857Y-94106714D01*
X118267619Y-94059095D01*
X118220000Y-94011476D01*
X118172381Y-93916238D01*
X118172381Y-93725761D01*
X118220000Y-93630523D01*
X118267619Y-93582904D01*
X118362857Y-93535285D01*
X118410476Y-93535285D01*
X118505714Y-93582904D01*
X118553333Y-93630523D01*
X118600952Y-93725761D01*
X118600952Y-93916238D01*
X118648571Y-94011476D01*
X118696190Y-94059095D01*
X118791429Y-94106714D01*
X118981905Y-94106714D01*
X119077143Y-94059095D01*
X119124762Y-94011476D01*
X119172381Y-93916238D01*
X119172381Y-93725761D01*
X119124762Y-93630523D01*
X119077143Y-93582904D01*
X118981905Y-93535285D01*
X118791429Y-93535285D01*
X118696190Y-93582904D01*
X118648571Y-93630523D01*
X118600952Y-93725761D01*
X131512381Y-103599857D02*
X131036190Y-103933191D01*
X131512381Y-104171286D02*
X130512381Y-104171286D01*
X130512381Y-103790333D01*
X130560000Y-103695095D01*
X130607619Y-103647476D01*
X130702857Y-103599857D01*
X130845714Y-103599857D01*
X130940952Y-103647476D01*
X130988571Y-103695095D01*
X131036190Y-103790333D01*
X131036190Y-104171286D01*
X131512381Y-102647476D02*
X131512381Y-103218905D01*
X131512381Y-102933191D02*
X130512381Y-102933191D01*
X130655238Y-103028429D01*
X130750476Y-103123667D01*
X130798095Y-103218905D01*
X130512381Y-102314143D02*
X130512381Y-101695095D01*
X130893333Y-102028429D01*
X130893333Y-101885571D01*
X130940952Y-101790333D01*
X130988571Y-101742714D01*
X131083810Y-101695095D01*
X131321905Y-101695095D01*
X131417143Y-101742714D01*
X131464762Y-101790333D01*
X131512381Y-101885571D01*
X131512381Y-102171286D01*
X131464762Y-102266524D01*
X131417143Y-102314143D01*
X132555143Y-103967381D02*
X132221809Y-103491190D01*
X131983714Y-103967381D02*
X131983714Y-102967381D01*
X132364667Y-102967381D01*
X132459905Y-103015000D01*
X132507524Y-103062619D01*
X132555143Y-103157857D01*
X132555143Y-103300714D01*
X132507524Y-103395952D01*
X132459905Y-103443571D01*
X132364667Y-103491190D01*
X131983714Y-103491190D01*
X133507524Y-103967381D02*
X132936095Y-103967381D01*
X133221809Y-103967381D02*
X133221809Y-102967381D01*
X133126571Y-103110238D01*
X133031333Y-103205476D01*
X132936095Y-103253095D01*
X134364667Y-103300714D02*
X134364667Y-103967381D01*
X134126571Y-102919762D02*
X133888476Y-103634048D01*
X134507524Y-103634048D01*
X131256381Y-104615857D02*
X130780190Y-104949191D01*
X131256381Y-105187286D02*
X130256381Y-105187286D01*
X130256381Y-104806333D01*
X130304000Y-104711095D01*
X130351619Y-104663476D01*
X130446857Y-104615857D01*
X130589714Y-104615857D01*
X130684952Y-104663476D01*
X130732571Y-104711095D01*
X130780190Y-104806333D01*
X130780190Y-105187286D01*
X131256381Y-103663476D02*
X131256381Y-104234905D01*
X131256381Y-103949191D02*
X130256381Y-103949191D01*
X130399238Y-104044429D01*
X130494476Y-104139667D01*
X130542095Y-104234905D01*
X130256381Y-102806333D02*
X130256381Y-102996810D01*
X130304000Y-103092048D01*
X130351619Y-103139667D01*
X130494476Y-103234905D01*
X130684952Y-103282524D01*
X131065905Y-103282524D01*
X131161143Y-103234905D01*
X131208762Y-103187286D01*
X131256381Y-103092048D01*
X131256381Y-102901571D01*
X131208762Y-102806333D01*
X131161143Y-102758714D01*
X131065905Y-102711095D01*
X130827810Y-102711095D01*
X130732571Y-102758714D01*
X130684952Y-102806333D01*
X130637333Y-102901571D01*
X130637333Y-103092048D01*
X130684952Y-103187286D01*
X130732571Y-103234905D01*
X130827810Y-103282524D01*
X127556381Y-100043857D02*
X127080190Y-100377191D01*
X127556381Y-100615286D02*
X126556381Y-100615286D01*
X126556381Y-100234333D01*
X126604000Y-100139095D01*
X126651619Y-100091476D01*
X126746857Y-100043857D01*
X126889714Y-100043857D01*
X126984952Y-100091476D01*
X127032571Y-100139095D01*
X127080190Y-100234333D01*
X127080190Y-100615286D01*
X127556381Y-99091476D02*
X127556381Y-99662905D01*
X127556381Y-99377191D02*
X126556381Y-99377191D01*
X126699238Y-99472429D01*
X126794476Y-99567667D01*
X126842095Y-99662905D01*
X126984952Y-98520048D02*
X126937333Y-98615286D01*
X126889714Y-98662905D01*
X126794476Y-98710524D01*
X126746857Y-98710524D01*
X126651619Y-98662905D01*
X126604000Y-98615286D01*
X126556381Y-98520048D01*
X126556381Y-98329571D01*
X126604000Y-98234333D01*
X126651619Y-98186714D01*
X126746857Y-98139095D01*
X126794476Y-98139095D01*
X126889714Y-98186714D01*
X126937333Y-98234333D01*
X126984952Y-98329571D01*
X126984952Y-98520048D01*
X127032571Y-98615286D01*
X127080190Y-98662905D01*
X127175429Y-98710524D01*
X127365905Y-98710524D01*
X127461143Y-98662905D01*
X127508762Y-98615286D01*
X127556381Y-98520048D01*
X127556381Y-98329571D01*
X127508762Y-98234333D01*
X127461143Y-98186714D01*
X127365905Y-98139095D01*
X127175429Y-98139095D01*
X127080190Y-98186714D01*
X127032571Y-98234333D01*
X126984952Y-98329571D01*
X151000381Y-95007857D02*
X150524190Y-95341191D01*
X151000381Y-95579286D02*
X150000381Y-95579286D01*
X150000381Y-95198333D01*
X150048000Y-95103095D01*
X150095619Y-95055476D01*
X150190857Y-95007857D01*
X150333714Y-95007857D01*
X150428952Y-95055476D01*
X150476571Y-95103095D01*
X150524190Y-95198333D01*
X150524190Y-95579286D01*
X150095619Y-94626905D02*
X150048000Y-94579286D01*
X150000381Y-94484048D01*
X150000381Y-94245952D01*
X150048000Y-94150714D01*
X150095619Y-94103095D01*
X150190857Y-94055476D01*
X150286095Y-94055476D01*
X150428952Y-94103095D01*
X151000381Y-94674524D01*
X151000381Y-94055476D01*
X151000381Y-93579286D02*
X151000381Y-93388810D01*
X150952762Y-93293571D01*
X150905143Y-93245952D01*
X150762286Y-93150714D01*
X150571810Y-93103095D01*
X150190857Y-93103095D01*
X150095619Y-93150714D01*
X150048000Y-93198333D01*
X150000381Y-93293571D01*
X150000381Y-93484048D01*
X150048000Y-93579286D01*
X150095619Y-93626905D01*
X150190857Y-93674524D01*
X150428952Y-93674524D01*
X150524190Y-93626905D01*
X150571810Y-93579286D01*
X150619429Y-93484048D01*
X150619429Y-93293571D01*
X150571810Y-93198333D01*
X150524190Y-93150714D01*
X150428952Y-93103095D01*
X154000381Y-103507857D02*
X153524190Y-103841191D01*
X154000381Y-104079286D02*
X153000381Y-104079286D01*
X153000381Y-103698333D01*
X153048000Y-103603095D01*
X153095619Y-103555476D01*
X153190857Y-103507857D01*
X153333714Y-103507857D01*
X153428952Y-103555476D01*
X153476571Y-103603095D01*
X153524190Y-103698333D01*
X153524190Y-104079286D01*
X153000381Y-103174524D02*
X153000381Y-102555476D01*
X153381333Y-102888810D01*
X153381333Y-102745952D01*
X153428952Y-102650714D01*
X153476571Y-102603095D01*
X153571810Y-102555476D01*
X153809905Y-102555476D01*
X153905143Y-102603095D01*
X153952762Y-102650714D01*
X154000381Y-102745952D01*
X154000381Y-103031667D01*
X153952762Y-103126905D01*
X153905143Y-103174524D01*
X153000381Y-101936429D02*
X153000381Y-101841190D01*
X153048000Y-101745952D01*
X153095619Y-101698333D01*
X153190857Y-101650714D01*
X153381333Y-101603095D01*
X153619429Y-101603095D01*
X153809905Y-101650714D01*
X153905143Y-101698333D01*
X153952762Y-101745952D01*
X154000381Y-101841190D01*
X154000381Y-101936429D01*
X153952762Y-102031667D01*
X153905143Y-102079286D01*
X153809905Y-102126905D01*
X153619429Y-102174524D01*
X153381333Y-102174524D01*
X153190857Y-102126905D01*
X153095619Y-102079286D01*
X153048000Y-102031667D01*
X153000381Y-101936429D01*
X149100381Y-100007857D02*
X148624190Y-100341191D01*
X149100381Y-100579286D02*
X148100381Y-100579286D01*
X148100381Y-100198333D01*
X148148000Y-100103095D01*
X148195619Y-100055476D01*
X148290857Y-100007857D01*
X148433714Y-100007857D01*
X148528952Y-100055476D01*
X148576571Y-100103095D01*
X148624190Y-100198333D01*
X148624190Y-100579286D01*
X148100381Y-99674524D02*
X148100381Y-99055476D01*
X148481333Y-99388810D01*
X148481333Y-99245952D01*
X148528952Y-99150714D01*
X148576571Y-99103095D01*
X148671810Y-99055476D01*
X148909905Y-99055476D01*
X149005143Y-99103095D01*
X149052762Y-99150714D01*
X149100381Y-99245952D01*
X149100381Y-99531667D01*
X149052762Y-99626905D01*
X149005143Y-99674524D01*
X148100381Y-98150714D02*
X148100381Y-98626905D01*
X148576571Y-98674524D01*
X148528952Y-98626905D01*
X148481333Y-98531667D01*
X148481333Y-98293571D01*
X148528952Y-98198333D01*
X148576571Y-98150714D01*
X148671810Y-98103095D01*
X148909905Y-98103095D01*
X149005143Y-98150714D01*
X149052762Y-98198333D01*
X149100381Y-98293571D01*
X149100381Y-98531667D01*
X149052762Y-98626905D01*
X149005143Y-98674524D01*
X151600381Y-100007857D02*
X151124190Y-100341191D01*
X151600381Y-100579286D02*
X150600381Y-100579286D01*
X150600381Y-100198333D01*
X150648000Y-100103095D01*
X150695619Y-100055476D01*
X150790857Y-100007857D01*
X150933714Y-100007857D01*
X151028952Y-100055476D01*
X151076571Y-100103095D01*
X151124190Y-100198333D01*
X151124190Y-100579286D01*
X150600381Y-99674524D02*
X150600381Y-99055476D01*
X150981333Y-99388810D01*
X150981333Y-99245952D01*
X151028952Y-99150714D01*
X151076571Y-99103095D01*
X151171810Y-99055476D01*
X151409905Y-99055476D01*
X151505143Y-99103095D01*
X151552762Y-99150714D01*
X151600381Y-99245952D01*
X151600381Y-99531667D01*
X151552762Y-99626905D01*
X151505143Y-99674524D01*
X150600381Y-98198333D02*
X150600381Y-98388810D01*
X150648000Y-98484048D01*
X150695619Y-98531667D01*
X150838476Y-98626905D01*
X151028952Y-98674524D01*
X151409905Y-98674524D01*
X151505143Y-98626905D01*
X151552762Y-98579286D01*
X151600381Y-98484048D01*
X151600381Y-98293571D01*
X151552762Y-98198333D01*
X151505143Y-98150714D01*
X151409905Y-98103095D01*
X151171810Y-98103095D01*
X151076571Y-98150714D01*
X151028952Y-98198333D01*
X150981333Y-98293571D01*
X150981333Y-98484048D01*
X151028952Y-98579286D01*
X151076571Y-98626905D01*
X151171810Y-98674524D01*
X172400381Y-95007857D02*
X171924190Y-95341191D01*
X172400381Y-95579286D02*
X171400381Y-95579286D01*
X171400381Y-95198333D01*
X171448000Y-95103095D01*
X171495619Y-95055476D01*
X171590857Y-95007857D01*
X171733714Y-95007857D01*
X171828952Y-95055476D01*
X171876571Y-95103095D01*
X171924190Y-95198333D01*
X171924190Y-95579286D01*
X171400381Y-94674524D02*
X171400381Y-94055476D01*
X171781333Y-94388810D01*
X171781333Y-94245952D01*
X171828952Y-94150714D01*
X171876571Y-94103095D01*
X171971810Y-94055476D01*
X172209905Y-94055476D01*
X172305143Y-94103095D01*
X172352762Y-94150714D01*
X172400381Y-94245952D01*
X172400381Y-94531667D01*
X172352762Y-94626905D01*
X172305143Y-94674524D01*
X171828952Y-93484048D02*
X171781333Y-93579286D01*
X171733714Y-93626905D01*
X171638476Y-93674524D01*
X171590857Y-93674524D01*
X171495619Y-93626905D01*
X171448000Y-93579286D01*
X171400381Y-93484048D01*
X171400381Y-93293571D01*
X171448000Y-93198333D01*
X171495619Y-93150714D01*
X171590857Y-93103095D01*
X171638476Y-93103095D01*
X171733714Y-93150714D01*
X171781333Y-93198333D01*
X171828952Y-93293571D01*
X171828952Y-93484048D01*
X171876571Y-93579286D01*
X171924190Y-93626905D01*
X172019429Y-93674524D01*
X172209905Y-93674524D01*
X172305143Y-93626905D01*
X172352762Y-93579286D01*
X172400381Y-93484048D01*
X172400381Y-93293571D01*
X172352762Y-93198333D01*
X172305143Y-93150714D01*
X172209905Y-93103095D01*
X172019429Y-93103095D01*
X171924190Y-93150714D01*
X171876571Y-93198333D01*
X171828952Y-93293571D01*
X161900381Y-95007857D02*
X161424190Y-95341191D01*
X161900381Y-95579286D02*
X160900381Y-95579286D01*
X160900381Y-95198333D01*
X160948000Y-95103095D01*
X160995619Y-95055476D01*
X161090857Y-95007857D01*
X161233714Y-95007857D01*
X161328952Y-95055476D01*
X161376571Y-95103095D01*
X161424190Y-95198333D01*
X161424190Y-95579286D01*
X161233714Y-94150714D02*
X161900381Y-94150714D01*
X160852762Y-94388810D02*
X161567048Y-94626905D01*
X161567048Y-94007857D01*
X160900381Y-93436429D02*
X160900381Y-93341190D01*
X160948000Y-93245952D01*
X160995619Y-93198333D01*
X161090857Y-93150714D01*
X161281333Y-93103095D01*
X161519429Y-93103095D01*
X161709905Y-93150714D01*
X161805143Y-93198333D01*
X161852762Y-93245952D01*
X161900381Y-93341190D01*
X161900381Y-93436429D01*
X161852762Y-93531667D01*
X161805143Y-93579286D01*
X161709905Y-93626905D01*
X161519429Y-93674524D01*
X161281333Y-93674524D01*
X161090857Y-93626905D01*
X160995619Y-93579286D01*
X160948000Y-93531667D01*
X160900381Y-93436429D01*
X177000381Y-103507857D02*
X176524190Y-103841191D01*
X177000381Y-104079286D02*
X176000381Y-104079286D01*
X176000381Y-103698333D01*
X176048000Y-103603095D01*
X176095619Y-103555476D01*
X176190857Y-103507857D01*
X176333714Y-103507857D01*
X176428952Y-103555476D01*
X176476571Y-103603095D01*
X176524190Y-103698333D01*
X176524190Y-104079286D01*
X176000381Y-102603095D02*
X176000381Y-103079286D01*
X176476571Y-103126905D01*
X176428952Y-103079286D01*
X176381333Y-102984048D01*
X176381333Y-102745952D01*
X176428952Y-102650714D01*
X176476571Y-102603095D01*
X176571810Y-102555476D01*
X176809905Y-102555476D01*
X176905143Y-102603095D01*
X176952762Y-102650714D01*
X177000381Y-102745952D01*
X177000381Y-102984048D01*
X176952762Y-103079286D01*
X176905143Y-103126905D01*
X177000381Y-101603095D02*
X177000381Y-102174524D01*
X177000381Y-101888810D02*
X176000381Y-101888810D01*
X176143238Y-101984048D01*
X176238476Y-102079286D01*
X176286095Y-102174524D01*
X178500381Y-103507857D02*
X178024190Y-103841191D01*
X178500381Y-104079286D02*
X177500381Y-104079286D01*
X177500381Y-103698333D01*
X177548000Y-103603095D01*
X177595619Y-103555476D01*
X177690857Y-103507857D01*
X177833714Y-103507857D01*
X177928952Y-103555476D01*
X177976571Y-103603095D01*
X178024190Y-103698333D01*
X178024190Y-104079286D01*
X177500381Y-102603095D02*
X177500381Y-103079286D01*
X177976571Y-103126905D01*
X177928952Y-103079286D01*
X177881333Y-102984048D01*
X177881333Y-102745952D01*
X177928952Y-102650714D01*
X177976571Y-102603095D01*
X178071810Y-102555476D01*
X178309905Y-102555476D01*
X178405143Y-102603095D01*
X178452762Y-102650714D01*
X178500381Y-102745952D01*
X178500381Y-102984048D01*
X178452762Y-103079286D01*
X178405143Y-103126905D01*
X177595619Y-102174524D02*
X177548000Y-102126905D01*
X177500381Y-102031667D01*
X177500381Y-101793571D01*
X177548000Y-101698333D01*
X177595619Y-101650714D01*
X177690857Y-101603095D01*
X177786095Y-101603095D01*
X177928952Y-101650714D01*
X178500381Y-102222143D01*
X178500381Y-101603095D01*
X174600381Y-100007857D02*
X174124190Y-100341191D01*
X174600381Y-100579286D02*
X173600381Y-100579286D01*
X173600381Y-100198333D01*
X173648000Y-100103095D01*
X173695619Y-100055476D01*
X173790857Y-100007857D01*
X173933714Y-100007857D01*
X174028952Y-100055476D01*
X174076571Y-100103095D01*
X174124190Y-100198333D01*
X174124190Y-100579286D01*
X173600381Y-99103095D02*
X173600381Y-99579286D01*
X174076571Y-99626905D01*
X174028952Y-99579286D01*
X173981333Y-99484048D01*
X173981333Y-99245952D01*
X174028952Y-99150714D01*
X174076571Y-99103095D01*
X174171810Y-99055476D01*
X174409905Y-99055476D01*
X174505143Y-99103095D01*
X174552762Y-99150714D01*
X174600381Y-99245952D01*
X174600381Y-99484048D01*
X174552762Y-99579286D01*
X174505143Y-99626905D01*
X173600381Y-98722143D02*
X173600381Y-98055476D01*
X174600381Y-98484048D01*
X190700381Y-117103095D02*
X189700381Y-117103095D01*
X189700381Y-116722142D01*
X189748000Y-116626904D01*
X189795619Y-116579285D01*
X189890857Y-116531666D01*
X190033714Y-116531666D01*
X190128952Y-116579285D01*
X190176571Y-116626904D01*
X190224190Y-116722142D01*
X190224190Y-117103095D01*
X190700381Y-115579285D02*
X190700381Y-116150714D01*
X190700381Y-115865000D02*
X189700381Y-115865000D01*
X189843238Y-115960238D01*
X189938476Y-116055476D01*
X189986095Y-116150714D01*
X121259905Y-112817381D02*
X121259905Y-111817381D01*
X121640858Y-111817381D01*
X121736096Y-111865000D01*
X121783715Y-111912619D01*
X121831334Y-112007857D01*
X121831334Y-112150714D01*
X121783715Y-112245952D01*
X121736096Y-112293571D01*
X121640858Y-112341190D01*
X121259905Y-112341190D01*
X122212286Y-111912619D02*
X122259905Y-111865000D01*
X122355143Y-111817381D01*
X122593239Y-111817381D01*
X122688477Y-111865000D01*
X122736096Y-111912619D01*
X122783715Y-112007857D01*
X122783715Y-112103095D01*
X122736096Y-112245952D01*
X122164667Y-112817381D01*
X122783715Y-112817381D01*
X142759905Y-63817381D02*
X142759905Y-62817381D01*
X143140858Y-62817381D01*
X143236096Y-62865000D01*
X143283715Y-62912619D01*
X143331334Y-63007857D01*
X143331334Y-63150714D01*
X143283715Y-63245952D01*
X143236096Y-63293571D01*
X143140858Y-63341190D01*
X142759905Y-63341190D01*
X143664667Y-62817381D02*
X144331334Y-62817381D01*
X143902762Y-63817381D01*
X142259905Y-112817381D02*
X142259905Y-111817381D01*
X142640858Y-111817381D01*
X142736096Y-111865000D01*
X142783715Y-111912619D01*
X142831334Y-112007857D01*
X142831334Y-112150714D01*
X142783715Y-112245952D01*
X142736096Y-112293571D01*
X142640858Y-112341190D01*
X142259905Y-112341190D01*
X143402762Y-112245952D02*
X143307524Y-112198333D01*
X143259905Y-112150714D01*
X143212286Y-112055476D01*
X143212286Y-112007857D01*
X143259905Y-111912619D01*
X143307524Y-111865000D01*
X143402762Y-111817381D01*
X143593239Y-111817381D01*
X143688477Y-111865000D01*
X143736096Y-111912619D01*
X143783715Y-112007857D01*
X143783715Y-112055476D01*
X143736096Y-112150714D01*
X143688477Y-112198333D01*
X143593239Y-112245952D01*
X143402762Y-112245952D01*
X143307524Y-112293571D01*
X143259905Y-112341190D01*
X143212286Y-112436429D01*
X143212286Y-112626905D01*
X143259905Y-112722143D01*
X143307524Y-112769762D01*
X143402762Y-112817381D01*
X143593239Y-112817381D01*
X143688477Y-112769762D01*
X143736096Y-112722143D01*
X143783715Y-112626905D01*
X143783715Y-112436429D01*
X143736096Y-112341190D01*
X143688477Y-112293571D01*
X143593239Y-112245952D01*
X128716381Y-104615857D02*
X128240190Y-104949191D01*
X128716381Y-105187286D02*
X127716381Y-105187286D01*
X127716381Y-104806333D01*
X127764000Y-104711095D01*
X127811619Y-104663476D01*
X127906857Y-104615857D01*
X128049714Y-104615857D01*
X128144952Y-104663476D01*
X128192571Y-104711095D01*
X128240190Y-104806333D01*
X128240190Y-105187286D01*
X128716381Y-103663476D02*
X128716381Y-104234905D01*
X128716381Y-103949191D02*
X127716381Y-103949191D01*
X127859238Y-104044429D01*
X127954476Y-104139667D01*
X128002095Y-104234905D01*
X127716381Y-102758714D02*
X127716381Y-103234905D01*
X128192571Y-103282524D01*
X128144952Y-103234905D01*
X128097333Y-103139667D01*
X128097333Y-102901571D01*
X128144952Y-102806333D01*
X128192571Y-102758714D01*
X128287810Y-102711095D01*
X128525905Y-102711095D01*
X128621143Y-102758714D01*
X128668762Y-102806333D01*
X128716381Y-102901571D01*
X128716381Y-103139667D01*
X128668762Y-103234905D01*
X128621143Y-103282524D01*
X125016381Y-100043857D02*
X124540190Y-100377191D01*
X125016381Y-100615286D02*
X124016381Y-100615286D01*
X124016381Y-100234333D01*
X124064000Y-100139095D01*
X124111619Y-100091476D01*
X124206857Y-100043857D01*
X124349714Y-100043857D01*
X124444952Y-100091476D01*
X124492571Y-100139095D01*
X124540190Y-100234333D01*
X124540190Y-100615286D01*
X125016381Y-99091476D02*
X125016381Y-99662905D01*
X125016381Y-99377191D02*
X124016381Y-99377191D01*
X124159238Y-99472429D01*
X124254476Y-99567667D01*
X124302095Y-99662905D01*
X124016381Y-98758143D02*
X124016381Y-98091476D01*
X125016381Y-98520048D01*
X139900381Y-101507857D02*
X139424190Y-101841191D01*
X139900381Y-102079286D02*
X138900381Y-102079286D01*
X138900381Y-101698333D01*
X138948000Y-101603095D01*
X138995619Y-101555476D01*
X139090857Y-101507857D01*
X139233714Y-101507857D01*
X139328952Y-101555476D01*
X139376571Y-101603095D01*
X139424190Y-101698333D01*
X139424190Y-102079286D01*
X138995619Y-101126905D02*
X138948000Y-101079286D01*
X138900381Y-100984048D01*
X138900381Y-100745952D01*
X138948000Y-100650714D01*
X138995619Y-100603095D01*
X139090857Y-100555476D01*
X139186095Y-100555476D01*
X139328952Y-100603095D01*
X139900381Y-101174524D01*
X139900381Y-100555476D01*
X139900381Y-99603095D02*
X139900381Y-100174524D01*
X139900381Y-99888810D02*
X138900381Y-99888810D01*
X139043238Y-99984048D01*
X139138476Y-100079286D01*
X139186095Y-100174524D01*
X138900381Y-95007857D02*
X138424190Y-95341191D01*
X138900381Y-95579286D02*
X137900381Y-95579286D01*
X137900381Y-95198333D01*
X137948000Y-95103095D01*
X137995619Y-95055476D01*
X138090857Y-95007857D01*
X138233714Y-95007857D01*
X138328952Y-95055476D01*
X138376571Y-95103095D01*
X138424190Y-95198333D01*
X138424190Y-95579286D01*
X137995619Y-94626905D02*
X137948000Y-94579286D01*
X137900381Y-94484048D01*
X137900381Y-94245952D01*
X137948000Y-94150714D01*
X137995619Y-94103095D01*
X138090857Y-94055476D01*
X138186095Y-94055476D01*
X138328952Y-94103095D01*
X138900381Y-94674524D01*
X138900381Y-94055476D01*
X137995619Y-93674524D02*
X137948000Y-93626905D01*
X137900381Y-93531667D01*
X137900381Y-93293571D01*
X137948000Y-93198333D01*
X137995619Y-93150714D01*
X138090857Y-93103095D01*
X138186095Y-93103095D01*
X138328952Y-93150714D01*
X138900381Y-93722143D01*
X138900381Y-93103095D01*
X152800381Y-104507857D02*
X152324190Y-104841191D01*
X152800381Y-105079286D02*
X151800381Y-105079286D01*
X151800381Y-104698333D01*
X151848000Y-104603095D01*
X151895619Y-104555476D01*
X151990857Y-104507857D01*
X152133714Y-104507857D01*
X152228952Y-104555476D01*
X152276571Y-104603095D01*
X152324190Y-104698333D01*
X152324190Y-105079286D01*
X151800381Y-104174524D02*
X151800381Y-103555476D01*
X152181333Y-103888810D01*
X152181333Y-103745952D01*
X152228952Y-103650714D01*
X152276571Y-103603095D01*
X152371810Y-103555476D01*
X152609905Y-103555476D01*
X152705143Y-103603095D01*
X152752762Y-103650714D01*
X152800381Y-103745952D01*
X152800381Y-104031667D01*
X152752762Y-104126905D01*
X152705143Y-104174524D01*
X151800381Y-103222143D02*
X151800381Y-102603095D01*
X152181333Y-102936429D01*
X152181333Y-102793571D01*
X152228952Y-102698333D01*
X152276571Y-102650714D01*
X152371810Y-102603095D01*
X152609905Y-102603095D01*
X152705143Y-102650714D01*
X152752762Y-102698333D01*
X152800381Y-102793571D01*
X152800381Y-103079286D01*
X152752762Y-103174524D01*
X152705143Y-103222143D01*
X155300381Y-104507857D02*
X154824190Y-104841191D01*
X155300381Y-105079286D02*
X154300381Y-105079286D01*
X154300381Y-104698333D01*
X154348000Y-104603095D01*
X154395619Y-104555476D01*
X154490857Y-104507857D01*
X154633714Y-104507857D01*
X154728952Y-104555476D01*
X154776571Y-104603095D01*
X154824190Y-104698333D01*
X154824190Y-105079286D01*
X154300381Y-104174524D02*
X154300381Y-103555476D01*
X154681333Y-103888810D01*
X154681333Y-103745952D01*
X154728952Y-103650714D01*
X154776571Y-103603095D01*
X154871810Y-103555476D01*
X155109905Y-103555476D01*
X155205143Y-103603095D01*
X155252762Y-103650714D01*
X155300381Y-103745952D01*
X155300381Y-104031667D01*
X155252762Y-104126905D01*
X155205143Y-104174524D01*
X154633714Y-102698333D02*
X155300381Y-102698333D01*
X154252762Y-102936429D02*
X154967048Y-103174524D01*
X154967048Y-102555476D01*
X173900381Y-95007857D02*
X173424190Y-95341191D01*
X173900381Y-95579286D02*
X172900381Y-95579286D01*
X172900381Y-95198333D01*
X172948000Y-95103095D01*
X172995619Y-95055476D01*
X173090857Y-95007857D01*
X173233714Y-95007857D01*
X173328952Y-95055476D01*
X173376571Y-95103095D01*
X173424190Y-95198333D01*
X173424190Y-95579286D01*
X173233714Y-94150714D02*
X173900381Y-94150714D01*
X172852762Y-94388810D02*
X173567048Y-94626905D01*
X173567048Y-94007857D01*
X172900381Y-93722143D02*
X172900381Y-93103095D01*
X173281333Y-93436429D01*
X173281333Y-93293571D01*
X173328952Y-93198333D01*
X173376571Y-93150714D01*
X173471810Y-93103095D01*
X173709905Y-93103095D01*
X173805143Y-93150714D01*
X173852762Y-93198333D01*
X173900381Y-93293571D01*
X173900381Y-93579286D01*
X173852762Y-93674524D01*
X173805143Y-93722143D01*
X166400381Y-95007857D02*
X165924190Y-95341191D01*
X166400381Y-95579286D02*
X165400381Y-95579286D01*
X165400381Y-95198333D01*
X165448000Y-95103095D01*
X165495619Y-95055476D01*
X165590857Y-95007857D01*
X165733714Y-95007857D01*
X165828952Y-95055476D01*
X165876571Y-95103095D01*
X165924190Y-95198333D01*
X165924190Y-95579286D01*
X165733714Y-94150714D02*
X166400381Y-94150714D01*
X165352762Y-94388810D02*
X166067048Y-94626905D01*
X166067048Y-94007857D01*
X165733714Y-93198333D02*
X166400381Y-93198333D01*
X165352762Y-93436429D02*
X166067048Y-93674524D01*
X166067048Y-93055476D01*
X175800381Y-104507857D02*
X175324190Y-104841191D01*
X175800381Y-105079286D02*
X174800381Y-105079286D01*
X174800381Y-104698333D01*
X174848000Y-104603095D01*
X174895619Y-104555476D01*
X174990857Y-104507857D01*
X175133714Y-104507857D01*
X175228952Y-104555476D01*
X175276571Y-104603095D01*
X175324190Y-104698333D01*
X175324190Y-105079286D01*
X174800381Y-103603095D02*
X174800381Y-104079286D01*
X175276571Y-104126905D01*
X175228952Y-104079286D01*
X175181333Y-103984048D01*
X175181333Y-103745952D01*
X175228952Y-103650714D01*
X175276571Y-103603095D01*
X175371810Y-103555476D01*
X175609905Y-103555476D01*
X175705143Y-103603095D01*
X175752762Y-103650714D01*
X175800381Y-103745952D01*
X175800381Y-103984048D01*
X175752762Y-104079286D01*
X175705143Y-104126905D01*
X175133714Y-102698333D02*
X175800381Y-102698333D01*
X174752762Y-102936429D02*
X175467048Y-103174524D01*
X175467048Y-102555476D01*
X178300381Y-104507857D02*
X177824190Y-104841191D01*
X178300381Y-105079286D02*
X177300381Y-105079286D01*
X177300381Y-104698333D01*
X177348000Y-104603095D01*
X177395619Y-104555476D01*
X177490857Y-104507857D01*
X177633714Y-104507857D01*
X177728952Y-104555476D01*
X177776571Y-104603095D01*
X177824190Y-104698333D01*
X177824190Y-105079286D01*
X177300381Y-103603095D02*
X177300381Y-104079286D01*
X177776571Y-104126905D01*
X177728952Y-104079286D01*
X177681333Y-103984048D01*
X177681333Y-103745952D01*
X177728952Y-103650714D01*
X177776571Y-103603095D01*
X177871810Y-103555476D01*
X178109905Y-103555476D01*
X178205143Y-103603095D01*
X178252762Y-103650714D01*
X178300381Y-103745952D01*
X178300381Y-103984048D01*
X178252762Y-104079286D01*
X178205143Y-104126905D01*
X177300381Y-102650714D02*
X177300381Y-103126905D01*
X177776571Y-103174524D01*
X177728952Y-103126905D01*
X177681333Y-103031667D01*
X177681333Y-102793571D01*
X177728952Y-102698333D01*
X177776571Y-102650714D01*
X177871810Y-102603095D01*
X178109905Y-102603095D01*
X178205143Y-102650714D01*
X178252762Y-102698333D01*
X178300381Y-102793571D01*
X178300381Y-103031667D01*
X178252762Y-103126905D01*
X178205143Y-103174524D01*
X172100381Y-100007857D02*
X171624190Y-100341191D01*
X172100381Y-100579286D02*
X171100381Y-100579286D01*
X171100381Y-100198333D01*
X171148000Y-100103095D01*
X171195619Y-100055476D01*
X171290857Y-100007857D01*
X171433714Y-100007857D01*
X171528952Y-100055476D01*
X171576571Y-100103095D01*
X171624190Y-100198333D01*
X171624190Y-100579286D01*
X171100381Y-99103095D02*
X171100381Y-99579286D01*
X171576571Y-99626905D01*
X171528952Y-99579286D01*
X171481333Y-99484048D01*
X171481333Y-99245952D01*
X171528952Y-99150714D01*
X171576571Y-99103095D01*
X171671810Y-99055476D01*
X171909905Y-99055476D01*
X172005143Y-99103095D01*
X172052762Y-99150714D01*
X172100381Y-99245952D01*
X172100381Y-99484048D01*
X172052762Y-99579286D01*
X172005143Y-99626905D01*
X171100381Y-98198333D02*
X171100381Y-98388810D01*
X171148000Y-98484048D01*
X171195619Y-98531667D01*
X171338476Y-98626905D01*
X171528952Y-98674524D01*
X171909905Y-98674524D01*
X172005143Y-98626905D01*
X172052762Y-98579286D01*
X172100381Y-98484048D01*
X172100381Y-98293571D01*
X172052762Y-98198333D01*
X172005143Y-98150714D01*
X171909905Y-98103095D01*
X171671810Y-98103095D01*
X171576571Y-98150714D01*
X171528952Y-98198333D01*
X171481333Y-98293571D01*
X171481333Y-98484048D01*
X171528952Y-98579286D01*
X171576571Y-98626905D01*
X171671810Y-98674524D01*
X138199905Y-119177381D02*
X138199905Y-118177381D01*
X138580858Y-118177381D01*
X138676096Y-118225000D01*
X138723715Y-118272619D01*
X138771334Y-118367857D01*
X138771334Y-118510714D01*
X138723715Y-118605952D01*
X138676096Y-118653571D01*
X138580858Y-118701190D01*
X138199905Y-118701190D01*
X139104667Y-118177381D02*
X139723715Y-118177381D01*
X139390381Y-118558333D01*
X139533239Y-118558333D01*
X139628477Y-118605952D01*
X139676096Y-118653571D01*
X139723715Y-118748810D01*
X139723715Y-118986905D01*
X139676096Y-119082143D01*
X139628477Y-119129762D01*
X139533239Y-119177381D01*
X139247524Y-119177381D01*
X139152286Y-119129762D01*
X139104667Y-119082143D01*
X161059905Y-119177381D02*
X161059905Y-118177381D01*
X161440858Y-118177381D01*
X161536096Y-118225000D01*
X161583715Y-118272619D01*
X161631334Y-118367857D01*
X161631334Y-118510714D01*
X161583715Y-118605952D01*
X161536096Y-118653571D01*
X161440858Y-118701190D01*
X161059905Y-118701190D01*
X162488477Y-118510714D02*
X162488477Y-119177381D01*
X162250381Y-118129762D02*
X162012286Y-118844048D01*
X162631334Y-118844048D01*
X129055905Y-70917381D02*
X129055905Y-69917381D01*
X129436858Y-69917381D01*
X129532096Y-69965000D01*
X129579715Y-70012619D01*
X129627334Y-70107857D01*
X129627334Y-70250714D01*
X129579715Y-70345952D01*
X129532096Y-70393571D01*
X129436858Y-70441190D01*
X129055905Y-70441190D01*
X130532096Y-69917381D02*
X130055905Y-69917381D01*
X130008286Y-70393571D01*
X130055905Y-70345952D01*
X130151143Y-70298333D01*
X130389239Y-70298333D01*
X130484477Y-70345952D01*
X130532096Y-70393571D01*
X130579715Y-70488810D01*
X130579715Y-70726905D01*
X130532096Y-70822143D01*
X130484477Y-70869762D01*
X130389239Y-70917381D01*
X130151143Y-70917381D01*
X130055905Y-70869762D01*
X130008286Y-70822143D01*
X123753714Y-121229381D02*
X123753714Y-120229381D01*
X124134667Y-120229381D01*
X124229905Y-120277000D01*
X124277524Y-120324619D01*
X124325143Y-120419857D01*
X124325143Y-120562714D01*
X124277524Y-120657952D01*
X124229905Y-120705571D01*
X124134667Y-120753190D01*
X123753714Y-120753190D01*
X125277524Y-121229381D02*
X124706095Y-121229381D01*
X124991809Y-121229381D02*
X124991809Y-120229381D01*
X124896571Y-120372238D01*
X124801333Y-120467476D01*
X124706095Y-120515095D01*
X126229905Y-121229381D02*
X125658476Y-121229381D01*
X125944190Y-121229381D02*
X125944190Y-120229381D01*
X125848952Y-120372238D01*
X125753714Y-120467476D01*
X125658476Y-120515095D01*
X127283714Y-63817381D02*
X127283714Y-62817381D01*
X127664667Y-62817381D01*
X127759905Y-62865000D01*
X127807524Y-62912619D01*
X127855143Y-63007857D01*
X127855143Y-63150714D01*
X127807524Y-63245952D01*
X127759905Y-63293571D01*
X127664667Y-63341190D01*
X127283714Y-63341190D01*
X128807524Y-63817381D02*
X128236095Y-63817381D01*
X128521809Y-63817381D02*
X128521809Y-62817381D01*
X128426571Y-62960238D01*
X128331333Y-63055476D01*
X128236095Y-63103095D01*
X129664667Y-62817381D02*
X129474190Y-62817381D01*
X129378952Y-62865000D01*
X129331333Y-62912619D01*
X129236095Y-63055476D01*
X129188476Y-63245952D01*
X129188476Y-63626905D01*
X129236095Y-63722143D01*
X129283714Y-63769762D01*
X129378952Y-63817381D01*
X129569429Y-63817381D01*
X129664667Y-63769762D01*
X129712286Y-63722143D01*
X129759905Y-63626905D01*
X129759905Y-63388810D01*
X129712286Y-63293571D01*
X129664667Y-63245952D01*
X129569429Y-63198333D01*
X129378952Y-63198333D01*
X129283714Y-63245952D01*
X129236095Y-63293571D01*
X129188476Y-63388810D01*
X135459905Y-90567381D02*
X135459905Y-89567381D01*
X135698000Y-89567381D01*
X135840858Y-89615000D01*
X135936096Y-89710238D01*
X135983715Y-89805476D01*
X136031334Y-89995952D01*
X136031334Y-90138810D01*
X135983715Y-90329286D01*
X135936096Y-90424524D01*
X135840858Y-90519762D01*
X135698000Y-90567381D01*
X135459905Y-90567381D01*
X136983715Y-90567381D02*
X136412286Y-90567381D01*
X136698000Y-90567381D02*
X136698000Y-89567381D01*
X136602762Y-89710238D01*
X136507524Y-89805476D01*
X136412286Y-89853095D01*
X195300381Y-110503095D02*
X194300381Y-110503095D01*
X194300381Y-110265000D01*
X194348000Y-110122142D01*
X194443238Y-110026904D01*
X194538476Y-109979285D01*
X194728952Y-109931666D01*
X194871810Y-109931666D01*
X195062286Y-109979285D01*
X195157524Y-110026904D01*
X195252762Y-110122142D01*
X195300381Y-110265000D01*
X195300381Y-110503095D01*
X194395619Y-109550714D02*
X194348000Y-109503095D01*
X194300381Y-109407857D01*
X194300381Y-109169761D01*
X194348000Y-109074523D01*
X194395619Y-109026904D01*
X194490857Y-108979285D01*
X194586095Y-108979285D01*
X194728952Y-109026904D01*
X195300381Y-109598333D01*
X195300381Y-108979285D01*
X131135143Y-83181666D02*
X131182762Y-83229285D01*
X131230381Y-83372142D01*
X131230381Y-83467380D01*
X131182762Y-83610238D01*
X131087524Y-83705476D01*
X130992286Y-83753095D01*
X130801810Y-83800714D01*
X130658952Y-83800714D01*
X130468476Y-83753095D01*
X130373238Y-83705476D01*
X130278000Y-83610238D01*
X130230381Y-83467380D01*
X130230381Y-83372142D01*
X130278000Y-83229285D01*
X130325619Y-83181666D01*
X130230381Y-82848333D02*
X130230381Y-82229285D01*
X130611333Y-82562619D01*
X130611333Y-82419761D01*
X130658952Y-82324523D01*
X130706571Y-82276904D01*
X130801810Y-82229285D01*
X131039905Y-82229285D01*
X131135143Y-82276904D01*
X131182762Y-82324523D01*
X131230381Y-82419761D01*
X131230381Y-82705476D01*
X131182762Y-82800714D01*
X131135143Y-82848333D01*
X129329429Y-87675952D02*
X129329429Y-86914047D01*
X129710381Y-87294999D02*
X128948476Y-87294999D01*
X139225143Y-82131666D02*
X139272762Y-82179285D01*
X139320381Y-82322142D01*
X139320381Y-82417380D01*
X139272762Y-82560238D01*
X139177524Y-82655476D01*
X139082286Y-82703095D01*
X138891810Y-82750714D01*
X138748952Y-82750714D01*
X138558476Y-82703095D01*
X138463238Y-82655476D01*
X138368000Y-82560238D01*
X138320381Y-82417380D01*
X138320381Y-82322142D01*
X138368000Y-82179285D01*
X138415619Y-82131666D01*
X138748952Y-81560238D02*
X138701333Y-81655476D01*
X138653714Y-81703095D01*
X138558476Y-81750714D01*
X138510857Y-81750714D01*
X138415619Y-81703095D01*
X138368000Y-81655476D01*
X138320381Y-81560238D01*
X138320381Y-81369761D01*
X138368000Y-81274523D01*
X138415619Y-81226904D01*
X138510857Y-81179285D01*
X138558476Y-81179285D01*
X138653714Y-81226904D01*
X138701333Y-81274523D01*
X138748952Y-81369761D01*
X138748952Y-81560238D01*
X138796571Y-81655476D01*
X138844190Y-81703095D01*
X138939429Y-81750714D01*
X139129905Y-81750714D01*
X139225143Y-81703095D01*
X139272762Y-81655476D01*
X139320381Y-81560238D01*
X139320381Y-81369761D01*
X139272762Y-81274523D01*
X139225143Y-81226904D01*
X139129905Y-81179285D01*
X138939429Y-81179285D01*
X138844190Y-81226904D01*
X138796571Y-81274523D01*
X138748952Y-81369761D01*
X140459429Y-78065952D02*
X140459429Y-77304047D01*
X140840381Y-77684999D02*
X140078476Y-77684999D01*
X132055143Y-114552143D02*
X132007524Y-114599762D01*
X131864667Y-114647381D01*
X131769429Y-114647381D01*
X131626571Y-114599762D01*
X131531333Y-114504524D01*
X131483714Y-114409286D01*
X131436095Y-114218810D01*
X131436095Y-114075952D01*
X131483714Y-113885476D01*
X131531333Y-113790238D01*
X131626571Y-113695000D01*
X131769429Y-113647381D01*
X131864667Y-113647381D01*
X132007524Y-113695000D01*
X132055143Y-113742619D01*
X133007524Y-114647381D02*
X132436095Y-114647381D01*
X132721809Y-114647381D02*
X132721809Y-113647381D01*
X132626571Y-113790238D01*
X132531333Y-113885476D01*
X132436095Y-113933095D01*
X133626571Y-113647381D02*
X133721810Y-113647381D01*
X133817048Y-113695000D01*
X133864667Y-113742619D01*
X133912286Y-113837857D01*
X133959905Y-114028333D01*
X133959905Y-114266429D01*
X133912286Y-114456905D01*
X133864667Y-114552143D01*
X133817048Y-114599762D01*
X133721810Y-114647381D01*
X133626571Y-114647381D01*
X133531333Y-114599762D01*
X133483714Y-114552143D01*
X133436095Y-114456905D01*
X133388476Y-114266429D01*
X133388476Y-114028333D01*
X133436095Y-113837857D01*
X133483714Y-113742619D01*
X133531333Y-113695000D01*
X133626571Y-113647381D01*
X128037048Y-112746429D02*
X128798953Y-112746429D01*
X128418001Y-113127381D02*
X128418001Y-112365476D01*
X155855143Y-114452143D02*
X155807524Y-114499762D01*
X155664667Y-114547381D01*
X155569429Y-114547381D01*
X155426571Y-114499762D01*
X155331333Y-114404524D01*
X155283714Y-114309286D01*
X155236095Y-114118810D01*
X155236095Y-113975952D01*
X155283714Y-113785476D01*
X155331333Y-113690238D01*
X155426571Y-113595000D01*
X155569429Y-113547381D01*
X155664667Y-113547381D01*
X155807524Y-113595000D01*
X155855143Y-113642619D01*
X156807524Y-114547381D02*
X156236095Y-114547381D01*
X156521809Y-114547381D02*
X156521809Y-113547381D01*
X156426571Y-113690238D01*
X156331333Y-113785476D01*
X156236095Y-113833095D01*
X157140857Y-113547381D02*
X157807524Y-113547381D01*
X157378952Y-114547381D01*
X151837048Y-112646429D02*
X152598953Y-112646429D01*
X152218001Y-113027381D02*
X152218001Y-112265476D01*
X173625143Y-112207857D02*
X173672762Y-112255476D01*
X173720381Y-112398333D01*
X173720381Y-112493571D01*
X173672762Y-112636429D01*
X173577524Y-112731667D01*
X173482286Y-112779286D01*
X173291810Y-112826905D01*
X173148952Y-112826905D01*
X172958476Y-112779286D01*
X172863238Y-112731667D01*
X172768000Y-112636429D01*
X172720381Y-112493571D01*
X172720381Y-112398333D01*
X172768000Y-112255476D01*
X172815619Y-112207857D01*
X172815619Y-111826905D02*
X172768000Y-111779286D01*
X172720381Y-111684048D01*
X172720381Y-111445952D01*
X172768000Y-111350714D01*
X172815619Y-111303095D01*
X172910857Y-111255476D01*
X173006095Y-111255476D01*
X173148952Y-111303095D01*
X173720381Y-111874524D01*
X173720381Y-111255476D01*
X173053714Y-110398333D02*
X173720381Y-110398333D01*
X172672762Y-110636429D02*
X173387048Y-110874524D01*
X173387048Y-110255476D01*
X174859429Y-107665952D02*
X174859429Y-106904047D01*
X175240381Y-107284999D02*
X174478476Y-107284999D01*
X112005143Y-85457857D02*
X112052762Y-85505476D01*
X112100381Y-85648333D01*
X112100381Y-85743571D01*
X112052762Y-85886429D01*
X111957524Y-85981667D01*
X111862286Y-86029286D01*
X111671810Y-86076905D01*
X111528952Y-86076905D01*
X111338476Y-86029286D01*
X111243238Y-85981667D01*
X111148000Y-85886429D01*
X111100381Y-85743571D01*
X111100381Y-85648333D01*
X111148000Y-85505476D01*
X111195619Y-85457857D01*
X111195619Y-85076905D02*
X111148000Y-85029286D01*
X111100381Y-84934048D01*
X111100381Y-84695952D01*
X111148000Y-84600714D01*
X111195619Y-84553095D01*
X111290857Y-84505476D01*
X111386095Y-84505476D01*
X111528952Y-84553095D01*
X112100381Y-85124524D01*
X112100381Y-84505476D01*
X111100381Y-83600714D02*
X111100381Y-84076905D01*
X111576571Y-84124524D01*
X111528952Y-84076905D01*
X111481333Y-83981667D01*
X111481333Y-83743571D01*
X111528952Y-83648333D01*
X111576571Y-83600714D01*
X111671810Y-83553095D01*
X111909905Y-83553095D01*
X112005143Y-83600714D01*
X112052762Y-83648333D01*
X112100381Y-83743571D01*
X112100381Y-83981667D01*
X112052762Y-84076905D01*
X112005143Y-84124524D01*
X117709905Y-86617381D02*
X117709905Y-85617381D01*
X117948000Y-85617381D01*
X118090858Y-85665000D01*
X118186096Y-85760238D01*
X118233715Y-85855476D01*
X118281334Y-86045952D01*
X118281334Y-86188810D01*
X118233715Y-86379286D01*
X118186096Y-86474524D01*
X118090858Y-86569762D01*
X117948000Y-86617381D01*
X117709905Y-86617381D01*
X118614667Y-85617381D02*
X119233715Y-85617381D01*
X118900381Y-85998333D01*
X119043239Y-85998333D01*
X119138477Y-86045952D01*
X119186096Y-86093571D01*
X119233715Y-86188810D01*
X119233715Y-86426905D01*
X119186096Y-86522143D01*
X119138477Y-86569762D01*
X119043239Y-86617381D01*
X118757524Y-86617381D01*
X118662286Y-86569762D01*
X118614667Y-86522143D01*
X116630381Y-84676905D02*
X117439905Y-84676905D01*
X117535143Y-84629286D01*
X117582762Y-84581667D01*
X117630381Y-84486429D01*
X117630381Y-84295952D01*
X117582762Y-84200714D01*
X117535143Y-84153095D01*
X117439905Y-84105476D01*
X116630381Y-84105476D01*
X116630381Y-83153095D02*
X116630381Y-83629286D01*
X117106571Y-83676905D01*
X117058952Y-83629286D01*
X117011333Y-83534048D01*
X117011333Y-83295952D01*
X117058952Y-83200714D01*
X117106571Y-83153095D01*
X117201810Y-83105476D01*
X117439905Y-83105476D01*
X117535143Y-83153095D01*
X117582762Y-83200714D01*
X117630381Y-83295952D01*
X117630381Y-83534048D01*
X117582762Y-83629286D01*
X117535143Y-83676905D01*
M02*
